M48
;GenerationSoftware,Autodesk,EAGLE,9.6.2*%
;CreationDate,2025-05-07T04:21:25Z*%
FMAT,2
ICI,OFF
METRIC,TZ,000.000
T4C0.813
T3C0.950
T2C1.200
T1C2.300
%
G90
M71
T1
X120980Y73660
X133020Y73660
T2
X23020Y78730
X43020Y78730
X43020Y68730
X23020Y68730
X38020Y68730
X33020Y68730
X28020Y68730
X50960Y76190
X70960Y76190
X70960Y66190
X50960Y66190
X65960Y66190
X60960Y66190
X55960Y66190
T3
X125750Y78370
X125750Y76370
X128250Y76370
X128250Y78370
T4
X82550Y53340
X85090Y53340
X87630Y53340
X90170Y53340
X90170Y60960
X87630Y60960
X85090Y60960
X82550Y60960
X80010Y60960
X77470Y60960
X77470Y39370
X80010Y39370
X82550Y39370
X85090Y39370
X87630Y39370
X90170Y39370
X90170Y46990
X87630Y46990
X85090Y46990
X82550Y46990
X80010Y46990
X77470Y46990
X80010Y53340
X83820Y19050
X96520Y19050
X96520Y26670
X86360Y19050
X88900Y19050
X93980Y19050
X91440Y19050
X93980Y26670
X91440Y26670
X88900Y26670
X86360Y26670
X83820Y26670
X81280Y26670
X82550Y3810
X85090Y3810
X97790Y3810
X97790Y11430
X87630Y3810
X90170Y3810
X95250Y3810
X92710Y3810
X95250Y11430
X92710Y11430
X90170Y11430
X87630Y11430
X85090Y11430
X82550Y11430
X77470Y53340
X118110Y54610
X120650Y54610
X123190Y54610
X125730Y54610
X128270Y54610
X130810Y54610
X130810Y46990
X128270Y46990
X125730Y46990
X123190Y46990
X120650Y46990
X118110Y46990
X81280Y19050
M30