G04 EAGLE Gerber RS-274X export*
G75*
%MOMM*%
%FSLAX34Y34*%
%LPD*%
%INTop Copper*%
%IPPOS*%
%AMOC8*
5,1,8,0,0,1.08239X$1,22.5*%
G01*
%ADD10P,1.578125X8X22.500000*%
%ADD11C,1.320800*%
%ADD12C,1.800000*%
%ADD13C,0.150000*%
%ADD14R,3.200000X3.200000*%


D10*
X1282500Y783700D03*
X1257500Y783700D03*
X1257500Y763700D03*
X1282500Y763700D03*
D11*
X1181100Y476504D02*
X1181100Y463296D01*
X1206500Y463296D02*
X1206500Y476504D01*
X1231900Y476504D02*
X1231900Y463296D01*
X1257300Y463296D02*
X1257300Y476504D01*
X1282700Y476504D02*
X1282700Y463296D01*
X1308100Y463296D02*
X1308100Y476504D01*
X1308100Y539496D02*
X1308100Y552704D01*
X1282700Y552704D02*
X1282700Y539496D01*
X1257300Y539496D02*
X1257300Y552704D01*
X1231900Y552704D02*
X1231900Y539496D01*
X1206500Y539496D02*
X1206500Y552704D01*
X1181100Y552704D02*
X1181100Y539496D01*
X774700Y540004D02*
X774700Y526796D01*
X800100Y526796D02*
X800100Y540004D01*
X825500Y540004D02*
X825500Y526796D01*
X850900Y526796D02*
X850900Y540004D01*
X876300Y540004D02*
X876300Y526796D01*
X901700Y526796D02*
X901700Y540004D01*
X901700Y602996D02*
X901700Y616204D01*
X876300Y616204D02*
X876300Y602996D01*
X850900Y602996D02*
X850900Y616204D01*
X825500Y616204D02*
X825500Y602996D01*
X800100Y602996D02*
X800100Y616204D01*
X774700Y616204D02*
X774700Y602996D01*
X774700Y400304D02*
X774700Y387096D01*
X800100Y387096D02*
X800100Y400304D01*
X825500Y400304D02*
X825500Y387096D01*
X850900Y387096D02*
X850900Y400304D01*
X876300Y400304D02*
X876300Y387096D01*
X901700Y387096D02*
X901700Y400304D01*
X901700Y463296D02*
X901700Y476504D01*
X876300Y476504D02*
X876300Y463296D01*
X850900Y463296D02*
X850900Y476504D01*
X825500Y476504D02*
X825500Y463296D01*
X800100Y463296D02*
X800100Y476504D01*
X774700Y476504D02*
X774700Y463296D01*
X812800Y197104D02*
X812800Y183896D01*
X838200Y183896D02*
X838200Y197104D01*
X965200Y197104D02*
X965200Y183896D01*
X965200Y260096D02*
X965200Y273304D01*
X863600Y197104D02*
X863600Y183896D01*
X889000Y183896D02*
X889000Y197104D01*
X939800Y197104D02*
X939800Y183896D01*
X914400Y183896D02*
X914400Y197104D01*
X939800Y260096D02*
X939800Y273304D01*
X914400Y273304D02*
X914400Y260096D01*
X889000Y260096D02*
X889000Y273304D01*
X863600Y273304D02*
X863600Y260096D01*
X838200Y260096D02*
X838200Y273304D01*
X812800Y273304D02*
X812800Y260096D01*
X825500Y44704D02*
X825500Y31496D01*
X850900Y31496D02*
X850900Y44704D01*
X977900Y44704D02*
X977900Y31496D01*
X977900Y107696D02*
X977900Y120904D01*
X876300Y44704D02*
X876300Y31496D01*
X901700Y31496D02*
X901700Y44704D01*
X952500Y44704D02*
X952500Y31496D01*
X927100Y31496D02*
X927100Y44704D01*
X952500Y107696D02*
X952500Y120904D01*
X927100Y120904D02*
X927100Y107696D01*
X901700Y107696D02*
X901700Y120904D01*
X876300Y120904D02*
X876300Y107696D01*
X850900Y107696D02*
X850900Y120904D01*
X825500Y120904D02*
X825500Y107696D01*
D12*
X559600Y652900D02*
X559600Y670900D01*
X609600Y670900D02*
X609600Y652900D01*
X659600Y652900D02*
X659600Y670900D01*
X509600Y670900D02*
X509600Y652900D01*
X709600Y652900D02*
X709600Y670900D01*
X709600Y752900D02*
X709600Y770900D01*
X509600Y770900D02*
X509600Y752900D01*
X280200Y696300D02*
X280200Y678300D01*
X330200Y678300D02*
X330200Y696300D01*
X380200Y696300D02*
X380200Y678300D01*
X230200Y678300D02*
X230200Y696300D01*
X430200Y696300D02*
X430200Y678300D01*
X430200Y778300D02*
X430200Y796300D01*
X230200Y796300D02*
X230200Y778300D01*
D13*
X1345350Y283450D02*
X1350850Y283450D01*
X1345350Y283450D02*
X1345350Y284950D01*
X1350850Y284950D01*
X1350850Y283450D01*
X1350850Y284875D02*
X1345350Y284875D01*
X1345350Y278450D02*
X1350850Y278450D01*
X1345350Y278450D02*
X1345350Y279950D01*
X1350850Y279950D01*
X1350850Y278450D01*
X1350850Y279875D02*
X1345350Y279875D01*
X1345350Y273450D02*
X1350850Y273450D01*
X1345350Y273450D02*
X1345350Y274950D01*
X1350850Y274950D01*
X1350850Y273450D01*
X1350850Y274875D02*
X1345350Y274875D01*
X1345350Y268450D02*
X1350850Y268450D01*
X1345350Y268450D02*
X1345350Y269950D01*
X1350850Y269950D01*
X1350850Y268450D01*
X1350850Y269875D02*
X1345350Y269875D01*
X1345350Y263450D02*
X1350850Y263450D01*
X1345350Y263450D02*
X1345350Y264950D01*
X1350850Y264950D01*
X1350850Y263450D01*
X1350850Y264875D02*
X1345350Y264875D01*
X1345350Y258450D02*
X1350850Y258450D01*
X1345350Y258450D02*
X1345350Y259950D01*
X1350850Y259950D01*
X1350850Y258450D01*
X1350850Y259875D02*
X1345350Y259875D01*
X1345350Y253450D02*
X1350850Y253450D01*
X1345350Y253450D02*
X1345350Y254950D01*
X1350850Y254950D01*
X1350850Y253450D01*
X1350850Y254875D02*
X1345350Y254875D01*
X1345350Y248450D02*
X1350850Y248450D01*
X1345350Y248450D02*
X1345350Y249950D01*
X1350850Y249950D01*
X1350850Y248450D01*
X1350850Y249875D02*
X1345350Y249875D01*
X1353350Y240450D02*
X1354850Y240450D01*
X1353350Y240450D02*
X1353350Y245950D01*
X1354850Y245950D01*
X1354850Y240450D01*
X1354850Y241875D02*
X1353350Y241875D01*
X1353350Y243300D02*
X1354850Y243300D01*
X1354850Y244725D02*
X1353350Y244725D01*
X1358350Y240450D02*
X1359850Y240450D01*
X1358350Y240450D02*
X1358350Y245950D01*
X1359850Y245950D01*
X1359850Y240450D01*
X1359850Y241875D02*
X1358350Y241875D01*
X1358350Y243300D02*
X1359850Y243300D01*
X1359850Y244725D02*
X1358350Y244725D01*
X1363350Y240450D02*
X1364850Y240450D01*
X1363350Y240450D02*
X1363350Y245950D01*
X1364850Y245950D01*
X1364850Y240450D01*
X1364850Y241875D02*
X1363350Y241875D01*
X1363350Y243300D02*
X1364850Y243300D01*
X1364850Y244725D02*
X1363350Y244725D01*
X1368350Y240450D02*
X1369850Y240450D01*
X1368350Y240450D02*
X1368350Y245950D01*
X1369850Y245950D01*
X1369850Y240450D01*
X1369850Y241875D02*
X1368350Y241875D01*
X1368350Y243300D02*
X1369850Y243300D01*
X1369850Y244725D02*
X1368350Y244725D01*
X1373350Y240450D02*
X1374850Y240450D01*
X1373350Y240450D02*
X1373350Y245950D01*
X1374850Y245950D01*
X1374850Y240450D01*
X1374850Y241875D02*
X1373350Y241875D01*
X1373350Y243300D02*
X1374850Y243300D01*
X1374850Y244725D02*
X1373350Y244725D01*
X1378350Y240450D02*
X1379850Y240450D01*
X1378350Y240450D02*
X1378350Y245950D01*
X1379850Y245950D01*
X1379850Y240450D01*
X1379850Y241875D02*
X1378350Y241875D01*
X1378350Y243300D02*
X1379850Y243300D01*
X1379850Y244725D02*
X1378350Y244725D01*
X1383350Y240450D02*
X1384850Y240450D01*
X1383350Y240450D02*
X1383350Y245950D01*
X1384850Y245950D01*
X1384850Y240450D01*
X1384850Y241875D02*
X1383350Y241875D01*
X1383350Y243300D02*
X1384850Y243300D01*
X1384850Y244725D02*
X1383350Y244725D01*
X1388350Y240450D02*
X1389850Y240450D01*
X1388350Y240450D02*
X1388350Y245950D01*
X1389850Y245950D01*
X1389850Y240450D01*
X1389850Y241875D02*
X1388350Y241875D01*
X1388350Y243300D02*
X1389850Y243300D01*
X1389850Y244725D02*
X1388350Y244725D01*
X1392350Y248450D02*
X1397850Y248450D01*
X1392350Y248450D02*
X1392350Y249950D01*
X1397850Y249950D01*
X1397850Y248450D01*
X1397850Y249875D02*
X1392350Y249875D01*
X1392350Y253450D02*
X1397850Y253450D01*
X1392350Y253450D02*
X1392350Y254950D01*
X1397850Y254950D01*
X1397850Y253450D01*
X1397850Y254875D02*
X1392350Y254875D01*
X1392350Y258450D02*
X1397850Y258450D01*
X1392350Y258450D02*
X1392350Y259950D01*
X1397850Y259950D01*
X1397850Y258450D01*
X1397850Y259875D02*
X1392350Y259875D01*
X1392350Y263450D02*
X1397850Y263450D01*
X1392350Y263450D02*
X1392350Y264950D01*
X1397850Y264950D01*
X1397850Y263450D01*
X1397850Y264875D02*
X1392350Y264875D01*
X1392350Y268450D02*
X1397850Y268450D01*
X1392350Y268450D02*
X1392350Y269950D01*
X1397850Y269950D01*
X1397850Y268450D01*
X1397850Y269875D02*
X1392350Y269875D01*
X1392350Y273450D02*
X1397850Y273450D01*
X1392350Y273450D02*
X1392350Y274950D01*
X1397850Y274950D01*
X1397850Y273450D01*
X1397850Y274875D02*
X1392350Y274875D01*
X1392350Y278450D02*
X1397850Y278450D01*
X1392350Y278450D02*
X1392350Y279950D01*
X1397850Y279950D01*
X1397850Y278450D01*
X1397850Y279875D02*
X1392350Y279875D01*
X1392350Y283450D02*
X1397850Y283450D01*
X1392350Y283450D02*
X1392350Y284950D01*
X1397850Y284950D01*
X1397850Y283450D01*
X1397850Y284875D02*
X1392350Y284875D01*
X1389850Y287450D02*
X1388350Y287450D01*
X1388350Y292950D01*
X1389850Y292950D01*
X1389850Y287450D01*
X1389850Y288875D02*
X1388350Y288875D01*
X1388350Y290300D02*
X1389850Y290300D01*
X1389850Y291725D02*
X1388350Y291725D01*
X1384850Y287450D02*
X1383350Y287450D01*
X1383350Y292950D01*
X1384850Y292950D01*
X1384850Y287450D01*
X1384850Y288875D02*
X1383350Y288875D01*
X1383350Y290300D02*
X1384850Y290300D01*
X1384850Y291725D02*
X1383350Y291725D01*
X1379850Y287450D02*
X1378350Y287450D01*
X1378350Y292950D01*
X1379850Y292950D01*
X1379850Y287450D01*
X1379850Y288875D02*
X1378350Y288875D01*
X1378350Y290300D02*
X1379850Y290300D01*
X1379850Y291725D02*
X1378350Y291725D01*
X1374850Y287450D02*
X1373350Y287450D01*
X1373350Y292950D01*
X1374850Y292950D01*
X1374850Y287450D01*
X1374850Y288875D02*
X1373350Y288875D01*
X1373350Y290300D02*
X1374850Y290300D01*
X1374850Y291725D02*
X1373350Y291725D01*
X1369850Y287450D02*
X1368350Y287450D01*
X1368350Y292950D01*
X1369850Y292950D01*
X1369850Y287450D01*
X1369850Y288875D02*
X1368350Y288875D01*
X1368350Y290300D02*
X1369850Y290300D01*
X1369850Y291725D02*
X1368350Y291725D01*
X1364850Y287450D02*
X1363350Y287450D01*
X1363350Y292950D01*
X1364850Y292950D01*
X1364850Y287450D01*
X1364850Y288875D02*
X1363350Y288875D01*
X1363350Y290300D02*
X1364850Y290300D01*
X1364850Y291725D02*
X1363350Y291725D01*
X1359850Y287450D02*
X1358350Y287450D01*
X1358350Y292950D01*
X1359850Y292950D01*
X1359850Y287450D01*
X1359850Y288875D02*
X1358350Y288875D01*
X1358350Y290300D02*
X1359850Y290300D01*
X1359850Y291725D02*
X1358350Y291725D01*
X1354850Y287450D02*
X1353350Y287450D01*
X1353350Y292950D01*
X1354850Y292950D01*
X1354850Y287450D01*
X1354850Y288875D02*
X1353350Y288875D01*
X1353350Y290300D02*
X1354850Y290300D01*
X1354850Y291725D02*
X1353350Y291725D01*
D14*
X1371600Y266700D03*
M02*
