G04 EAGLE Gerber RS-274X export*
G75*
%MOMM*%
%FSLAX34Y34*%
%LPD*%
%IN*%
%IPPOS*%
%AMOC8*
5,1,8,0,0,1.08239X$1,22.5*%
G01*
%ADD10C,0.254000*%


D10*
X0Y0D02*
X1600000Y0D01*
X1600000Y1000000D01*
X0Y1000000D01*
X0Y0D01*
X1221300Y736148D02*
X1221229Y735247D01*
X1221088Y734355D01*
X1220877Y733476D01*
X1220598Y732617D01*
X1220252Y731782D01*
X1219841Y730977D01*
X1219369Y730206D01*
X1218838Y729475D01*
X1218251Y728788D01*
X1217612Y728149D01*
X1216925Y727562D01*
X1216194Y727031D01*
X1215423Y726559D01*
X1214618Y726148D01*
X1213783Y725802D01*
X1212924Y725523D01*
X1212045Y725312D01*
X1211153Y725171D01*
X1210252Y725100D01*
X1209348Y725100D01*
X1208447Y725171D01*
X1207555Y725312D01*
X1206676Y725523D01*
X1205817Y725802D01*
X1204982Y726148D01*
X1204177Y726559D01*
X1203406Y727031D01*
X1202675Y727562D01*
X1201988Y728149D01*
X1201349Y728788D01*
X1200762Y729475D01*
X1200231Y730206D01*
X1199759Y730977D01*
X1199348Y731782D01*
X1199002Y732617D01*
X1198723Y733476D01*
X1198512Y734355D01*
X1198371Y735247D01*
X1198300Y736148D01*
X1198300Y737052D01*
X1198371Y737953D01*
X1198512Y738845D01*
X1198723Y739724D01*
X1199002Y740583D01*
X1199348Y741418D01*
X1199759Y742223D01*
X1200231Y742994D01*
X1200762Y743725D01*
X1201349Y744412D01*
X1201988Y745051D01*
X1202675Y745638D01*
X1203406Y746169D01*
X1204177Y746641D01*
X1204982Y747052D01*
X1205817Y747398D01*
X1206676Y747677D01*
X1207555Y747888D01*
X1208447Y748029D01*
X1209348Y748100D01*
X1210252Y748100D01*
X1211153Y748029D01*
X1212045Y747888D01*
X1212924Y747677D01*
X1213783Y747398D01*
X1214618Y747052D01*
X1215423Y746641D01*
X1216194Y746169D01*
X1216925Y745638D01*
X1217612Y745051D01*
X1218251Y744412D01*
X1218838Y743725D01*
X1219369Y742994D01*
X1219841Y742223D01*
X1220252Y741418D01*
X1220598Y740583D01*
X1220877Y739724D01*
X1221088Y738845D01*
X1221229Y737953D01*
X1221300Y737052D01*
X1221300Y736148D01*
X1341700Y736148D02*
X1341629Y735247D01*
X1341488Y734355D01*
X1341277Y733476D01*
X1340998Y732617D01*
X1340652Y731782D01*
X1340241Y730977D01*
X1339769Y730206D01*
X1339238Y729475D01*
X1338651Y728788D01*
X1338012Y728149D01*
X1337325Y727562D01*
X1336594Y727031D01*
X1335823Y726559D01*
X1335018Y726148D01*
X1334183Y725802D01*
X1333324Y725523D01*
X1332445Y725312D01*
X1331553Y725171D01*
X1330652Y725100D01*
X1329748Y725100D01*
X1328847Y725171D01*
X1327955Y725312D01*
X1327076Y725523D01*
X1326217Y725802D01*
X1325382Y726148D01*
X1324577Y726559D01*
X1323806Y727031D01*
X1323075Y727562D01*
X1322388Y728149D01*
X1321749Y728788D01*
X1321162Y729475D01*
X1320631Y730206D01*
X1320159Y730977D01*
X1319748Y731782D01*
X1319402Y732617D01*
X1319123Y733476D01*
X1318912Y734355D01*
X1318771Y735247D01*
X1318700Y736148D01*
X1318700Y737052D01*
X1318771Y737953D01*
X1318912Y738845D01*
X1319123Y739724D01*
X1319402Y740583D01*
X1319748Y741418D01*
X1320159Y742223D01*
X1320631Y742994D01*
X1321162Y743725D01*
X1321749Y744412D01*
X1322388Y745051D01*
X1323075Y745638D01*
X1323806Y746169D01*
X1324577Y746641D01*
X1325382Y747052D01*
X1326217Y747398D01*
X1327076Y747677D01*
X1327955Y747888D01*
X1328847Y748029D01*
X1329748Y748100D01*
X1330652Y748100D01*
X1331553Y748029D01*
X1332445Y747888D01*
X1333324Y747677D01*
X1334183Y747398D01*
X1335018Y747052D01*
X1335823Y746641D01*
X1336594Y746169D01*
X1337325Y745638D01*
X1338012Y745051D01*
X1338651Y744412D01*
X1339238Y743725D01*
X1339769Y742994D01*
X1340241Y742223D01*
X1340652Y741418D01*
X1340998Y740583D01*
X1341277Y739724D01*
X1341488Y738845D01*
X1341629Y737953D01*
X1341700Y737052D01*
X1341700Y736148D01*
M02*
