G04 EAGLE Gerber RS-274X export*
G75*
%MOMM*%
%FSLAX34Y34*%
%LPD*%
%INSilkscreen Top*%
%IPPOS*%
%AMOC8*
5,1,8,0,0,1.08239X$1,22.5*%
G01*
%ADD10C,0.254000*%
%ADD11C,0.050800*%
%ADD12C,0.025400*%
%ADD13C,0.101600*%
%ADD14C,0.152400*%
%ADD15C,0.127000*%
%ADD16C,0.203200*%


D10*
X1211000Y792600D02*
X1211000Y635100D01*
X1329000Y635100D01*
X1329000Y792600D01*
X1211000Y792600D01*
D11*
X1245400Y743900D02*
X1245540Y743898D01*
X1245680Y743892D01*
X1245820Y743882D01*
X1245960Y743869D01*
X1246099Y743851D01*
X1246238Y743829D01*
X1246375Y743804D01*
X1246513Y743775D01*
X1246649Y743742D01*
X1246784Y743705D01*
X1246918Y743664D01*
X1247051Y743619D01*
X1247183Y743571D01*
X1247313Y743519D01*
X1247442Y743464D01*
X1247569Y743405D01*
X1247695Y743342D01*
X1247819Y743276D01*
X1247940Y743207D01*
X1248060Y743134D01*
X1248178Y743057D01*
X1248293Y742978D01*
X1248407Y742895D01*
X1248517Y742809D01*
X1248626Y742720D01*
X1248732Y742628D01*
X1248835Y742533D01*
X1248936Y742436D01*
X1249033Y742335D01*
X1249128Y742232D01*
X1249220Y742126D01*
X1249309Y742017D01*
X1249395Y741907D01*
X1249478Y741793D01*
X1249557Y741678D01*
X1249634Y741560D01*
X1249707Y741440D01*
X1249776Y741319D01*
X1249842Y741195D01*
X1249905Y741069D01*
X1249964Y740942D01*
X1250019Y740813D01*
X1250071Y740683D01*
X1250119Y740551D01*
X1250164Y740418D01*
X1250205Y740284D01*
X1250242Y740149D01*
X1250275Y740013D01*
X1250304Y739875D01*
X1250329Y739738D01*
X1250351Y739599D01*
X1250369Y739460D01*
X1250382Y739320D01*
X1250392Y739180D01*
X1250398Y739040D01*
X1250400Y738900D01*
X1250398Y738760D01*
X1250392Y738620D01*
X1250382Y738480D01*
X1250369Y738340D01*
X1250351Y738201D01*
X1250329Y738062D01*
X1250304Y737925D01*
X1250275Y737787D01*
X1250242Y737651D01*
X1250205Y737516D01*
X1250164Y737382D01*
X1250119Y737249D01*
X1250071Y737117D01*
X1250019Y736987D01*
X1249964Y736858D01*
X1249905Y736731D01*
X1249842Y736605D01*
X1249776Y736481D01*
X1249707Y736360D01*
X1249634Y736240D01*
X1249557Y736122D01*
X1249478Y736007D01*
X1249395Y735893D01*
X1249309Y735783D01*
X1249220Y735674D01*
X1249128Y735568D01*
X1249033Y735465D01*
X1248936Y735364D01*
X1248835Y735267D01*
X1248732Y735172D01*
X1248626Y735080D01*
X1248517Y734991D01*
X1248407Y734905D01*
X1248293Y734822D01*
X1248178Y734743D01*
X1248060Y734666D01*
X1247940Y734593D01*
X1247819Y734524D01*
X1247695Y734458D01*
X1247569Y734395D01*
X1247442Y734336D01*
X1247313Y734281D01*
X1247183Y734229D01*
X1247051Y734181D01*
X1246918Y734136D01*
X1246784Y734095D01*
X1246649Y734058D01*
X1246513Y734025D01*
X1246375Y733996D01*
X1246238Y733971D01*
X1246099Y733949D01*
X1245960Y733931D01*
X1245820Y733918D01*
X1245680Y733908D01*
X1245540Y733902D01*
X1245400Y733900D01*
X1245540Y733898D01*
X1245680Y733892D01*
X1245820Y733882D01*
X1245960Y733869D01*
X1246099Y733851D01*
X1246238Y733829D01*
X1246375Y733804D01*
X1246513Y733775D01*
X1246649Y733742D01*
X1246784Y733705D01*
X1246918Y733664D01*
X1247051Y733619D01*
X1247183Y733571D01*
X1247313Y733519D01*
X1247442Y733464D01*
X1247569Y733405D01*
X1247695Y733342D01*
X1247819Y733276D01*
X1247940Y733207D01*
X1248060Y733134D01*
X1248178Y733057D01*
X1248293Y732978D01*
X1248407Y732895D01*
X1248517Y732809D01*
X1248626Y732720D01*
X1248732Y732628D01*
X1248835Y732533D01*
X1248936Y732436D01*
X1249033Y732335D01*
X1249128Y732232D01*
X1249220Y732126D01*
X1249309Y732017D01*
X1249395Y731907D01*
X1249478Y731793D01*
X1249557Y731678D01*
X1249634Y731560D01*
X1249707Y731440D01*
X1249776Y731319D01*
X1249842Y731195D01*
X1249905Y731069D01*
X1249964Y730942D01*
X1250019Y730813D01*
X1250071Y730683D01*
X1250119Y730551D01*
X1250164Y730418D01*
X1250205Y730284D01*
X1250242Y730149D01*
X1250275Y730013D01*
X1250304Y729875D01*
X1250329Y729738D01*
X1250351Y729599D01*
X1250369Y729460D01*
X1250382Y729320D01*
X1250392Y729180D01*
X1250398Y729040D01*
X1250400Y728900D01*
X1250398Y728760D01*
X1250392Y728620D01*
X1250382Y728480D01*
X1250369Y728340D01*
X1250351Y728201D01*
X1250329Y728062D01*
X1250304Y727925D01*
X1250275Y727787D01*
X1250242Y727651D01*
X1250205Y727516D01*
X1250164Y727382D01*
X1250119Y727249D01*
X1250071Y727117D01*
X1250019Y726987D01*
X1249964Y726858D01*
X1249905Y726731D01*
X1249842Y726605D01*
X1249776Y726481D01*
X1249707Y726360D01*
X1249634Y726240D01*
X1249557Y726122D01*
X1249478Y726007D01*
X1249395Y725893D01*
X1249309Y725783D01*
X1249220Y725674D01*
X1249128Y725568D01*
X1249033Y725465D01*
X1248936Y725364D01*
X1248835Y725267D01*
X1248732Y725172D01*
X1248626Y725080D01*
X1248517Y724991D01*
X1248407Y724905D01*
X1248293Y724822D01*
X1248178Y724743D01*
X1248060Y724666D01*
X1247940Y724593D01*
X1247819Y724524D01*
X1247695Y724458D01*
X1247569Y724395D01*
X1247442Y724336D01*
X1247313Y724281D01*
X1247183Y724229D01*
X1247051Y724181D01*
X1246918Y724136D01*
X1246784Y724095D01*
X1246649Y724058D01*
X1246513Y724025D01*
X1246375Y723996D01*
X1246238Y723971D01*
X1246099Y723949D01*
X1245960Y723931D01*
X1245820Y723918D01*
X1245680Y723908D01*
X1245540Y723902D01*
X1245400Y723900D01*
X1306650Y728900D02*
X1306510Y728902D01*
X1306370Y728908D01*
X1306230Y728918D01*
X1306090Y728931D01*
X1305951Y728949D01*
X1305812Y728971D01*
X1305675Y728996D01*
X1305537Y729025D01*
X1305401Y729058D01*
X1305266Y729095D01*
X1305132Y729136D01*
X1304999Y729181D01*
X1304867Y729229D01*
X1304737Y729281D01*
X1304608Y729336D01*
X1304481Y729395D01*
X1304355Y729458D01*
X1304231Y729524D01*
X1304110Y729593D01*
X1303990Y729666D01*
X1303872Y729743D01*
X1303757Y729822D01*
X1303643Y729905D01*
X1303533Y729991D01*
X1303424Y730080D01*
X1303318Y730172D01*
X1303215Y730267D01*
X1303114Y730364D01*
X1303017Y730465D01*
X1302922Y730568D01*
X1302830Y730674D01*
X1302741Y730783D01*
X1302655Y730893D01*
X1302572Y731007D01*
X1302493Y731122D01*
X1302416Y731240D01*
X1302343Y731360D01*
X1302274Y731481D01*
X1302208Y731605D01*
X1302145Y731731D01*
X1302086Y731858D01*
X1302031Y731987D01*
X1301979Y732117D01*
X1301931Y732249D01*
X1301886Y732382D01*
X1301845Y732516D01*
X1301808Y732651D01*
X1301775Y732787D01*
X1301746Y732925D01*
X1301721Y733062D01*
X1301699Y733201D01*
X1301681Y733340D01*
X1301668Y733480D01*
X1301658Y733620D01*
X1301652Y733760D01*
X1301650Y733900D01*
X1301652Y734040D01*
X1301658Y734180D01*
X1301668Y734320D01*
X1301681Y734460D01*
X1301699Y734599D01*
X1301721Y734738D01*
X1301746Y734875D01*
X1301775Y735013D01*
X1301808Y735149D01*
X1301845Y735284D01*
X1301886Y735418D01*
X1301931Y735551D01*
X1301979Y735683D01*
X1302031Y735813D01*
X1302086Y735942D01*
X1302145Y736069D01*
X1302208Y736195D01*
X1302274Y736319D01*
X1302343Y736440D01*
X1302416Y736560D01*
X1302493Y736678D01*
X1302572Y736793D01*
X1302655Y736907D01*
X1302741Y737017D01*
X1302830Y737126D01*
X1302922Y737232D01*
X1303017Y737335D01*
X1303114Y737436D01*
X1303215Y737533D01*
X1303318Y737628D01*
X1303424Y737720D01*
X1303533Y737809D01*
X1303643Y737895D01*
X1303757Y737978D01*
X1303872Y738057D01*
X1303990Y738134D01*
X1304110Y738207D01*
X1304231Y738276D01*
X1304355Y738342D01*
X1304481Y738405D01*
X1304608Y738464D01*
X1304737Y738519D01*
X1304867Y738571D01*
X1304999Y738619D01*
X1305132Y738664D01*
X1305266Y738705D01*
X1305401Y738742D01*
X1305537Y738775D01*
X1305675Y738804D01*
X1305812Y738829D01*
X1305951Y738851D01*
X1306090Y738869D01*
X1306230Y738882D01*
X1306370Y738892D01*
X1306510Y738898D01*
X1306650Y738900D01*
X1304150Y743900D02*
X1303906Y743897D01*
X1303663Y743888D01*
X1303420Y743873D01*
X1303177Y743853D01*
X1302935Y743826D01*
X1302694Y743793D01*
X1302454Y743755D01*
X1302214Y743711D01*
X1301976Y743661D01*
X1301739Y743605D01*
X1301503Y743543D01*
X1301269Y743476D01*
X1301037Y743403D01*
X1300806Y743324D01*
X1300578Y743240D01*
X1300351Y743150D01*
X1300127Y743055D01*
X1299905Y742954D01*
X1299686Y742848D01*
X1299470Y742737D01*
X1299256Y742620D01*
X1299045Y742499D01*
X1298837Y742372D01*
X1298632Y742240D01*
X1298431Y742103D01*
X1298233Y741961D01*
X1298038Y741815D01*
X1297847Y741664D01*
X1297660Y741508D01*
X1297477Y741348D01*
X1297297Y741183D01*
X1297122Y741014D01*
X1296951Y740841D01*
X1296784Y740663D01*
X1296622Y740482D01*
X1296464Y740297D01*
X1296310Y740108D01*
X1296161Y739915D01*
X1296017Y739719D01*
X1295878Y739519D01*
X1295743Y739316D01*
X1295614Y739109D01*
X1295490Y738900D01*
X1295371Y738688D01*
X1295257Y738472D01*
X1295148Y738255D01*
X1295045Y738034D01*
X1294947Y737811D01*
X1294854Y737586D01*
X1294767Y737358D01*
X1294686Y737129D01*
X1294610Y736897D01*
X1294540Y736664D01*
X1294475Y736429D01*
X1294416Y736193D01*
X1294363Y735955D01*
X1294316Y735716D01*
X1294275Y735476D01*
X1294240Y735235D01*
X1294210Y734994D01*
X1294186Y734751D01*
X1294169Y734508D01*
X1294157Y734265D01*
X1294151Y734022D01*
X1294151Y733778D01*
X1294157Y733535D01*
X1294169Y733292D01*
X1294186Y733049D01*
X1294210Y732806D01*
X1294240Y732565D01*
X1294275Y732324D01*
X1294316Y732084D01*
X1294363Y731845D01*
X1294416Y731607D01*
X1294475Y731371D01*
X1294540Y731136D01*
X1294610Y730903D01*
X1294686Y730671D01*
X1294767Y730442D01*
X1294854Y730214D01*
X1294947Y729989D01*
X1295045Y729766D01*
X1295148Y729545D01*
X1295257Y729328D01*
X1295371Y729112D01*
X1295490Y728900D01*
X1295614Y728691D01*
X1295743Y728484D01*
X1295878Y728281D01*
X1296017Y728081D01*
X1296161Y727885D01*
X1296310Y727692D01*
X1296464Y727503D01*
X1296622Y727318D01*
X1296784Y727137D01*
X1296951Y726959D01*
X1297122Y726786D01*
X1297297Y726617D01*
X1297477Y726452D01*
X1297660Y726292D01*
X1297847Y726136D01*
X1298038Y725985D01*
X1298233Y725839D01*
X1298431Y725697D01*
X1298632Y725560D01*
X1298837Y725428D01*
X1299045Y725301D01*
X1299256Y725180D01*
X1299470Y725063D01*
X1299686Y724952D01*
X1299905Y724846D01*
X1300127Y724745D01*
X1300351Y724650D01*
X1300578Y724560D01*
X1300806Y724476D01*
X1301037Y724397D01*
X1301269Y724324D01*
X1301503Y724257D01*
X1301739Y724195D01*
X1301976Y724139D01*
X1302214Y724089D01*
X1302454Y724045D01*
X1302694Y724007D01*
X1302935Y723974D01*
X1303177Y723947D01*
X1303420Y723927D01*
X1303663Y723912D01*
X1303906Y723903D01*
X1304150Y723900D01*
X1306650Y738900D02*
X1307103Y738955D01*
X1307556Y738999D01*
X1308011Y739032D01*
X1308466Y739054D01*
X1308922Y739065D01*
X1309378Y739065D01*
X1309834Y739054D01*
X1310289Y739032D01*
X1310744Y738999D01*
X1311197Y738955D01*
X1311650Y738900D01*
X1311750Y743350D02*
X1310913Y743490D01*
X1310073Y743611D01*
X1309231Y743711D01*
X1308387Y743792D01*
X1307541Y743854D01*
X1306694Y743895D01*
X1305846Y743917D01*
X1304998Y743918D01*
X1304150Y743900D01*
X1304150Y723900D02*
X1304695Y723909D01*
X1305240Y723930D01*
X1305785Y723964D01*
X1306328Y724010D01*
X1306871Y724069D01*
X1307411Y724140D01*
X1307950Y724223D01*
X1308487Y724319D01*
X1309022Y724427D01*
X1309554Y724548D01*
X1310083Y724680D01*
X1310609Y724825D01*
X1311131Y724982D01*
X1311650Y725150D01*
X1286650Y731400D02*
X1286807Y731402D01*
X1286964Y731408D01*
X1287121Y731418D01*
X1287277Y731432D01*
X1287433Y731449D01*
X1287589Y731471D01*
X1287744Y731496D01*
X1287898Y731526D01*
X1288052Y731559D01*
X1288204Y731596D01*
X1288356Y731637D01*
X1288507Y731682D01*
X1288656Y731731D01*
X1288804Y731783D01*
X1288951Y731839D01*
X1289096Y731899D01*
X1289240Y731962D01*
X1289382Y732029D01*
X1289522Y732099D01*
X1289661Y732173D01*
X1289798Y732250D01*
X1289932Y732331D01*
X1290065Y732415D01*
X1290195Y732503D01*
X1290324Y732594D01*
X1290450Y732688D01*
X1290573Y732785D01*
X1290694Y732885D01*
X1290813Y732988D01*
X1290928Y733094D01*
X1291042Y733203D01*
X1291152Y733315D01*
X1291259Y733429D01*
X1291364Y733546D01*
X1291466Y733666D01*
X1291564Y733788D01*
X1291660Y733913D01*
X1291752Y734040D01*
X1291841Y734170D01*
X1291927Y734301D01*
X1292010Y734435D01*
X1292089Y734570D01*
X1292164Y734708D01*
X1292237Y734848D01*
X1292305Y734989D01*
X1292370Y735132D01*
X1292432Y735276D01*
X1292490Y735422D01*
X1292544Y735570D01*
X1292594Y735719D01*
X1292641Y735869D01*
X1292684Y736020D01*
X1292723Y736172D01*
X1292758Y736325D01*
X1292789Y736479D01*
X1292817Y736634D01*
X1292840Y736789D01*
X1292860Y736945D01*
X1292876Y737101D01*
X1292888Y737258D01*
X1292896Y737414D01*
X1292900Y737571D01*
X1292900Y737729D01*
X1292896Y737886D01*
X1292888Y738042D01*
X1292876Y738199D01*
X1292860Y738355D01*
X1292840Y738511D01*
X1292817Y738666D01*
X1292789Y738821D01*
X1292758Y738975D01*
X1292723Y739128D01*
X1292684Y739280D01*
X1292641Y739431D01*
X1292594Y739581D01*
X1292544Y739730D01*
X1292490Y739878D01*
X1292432Y740024D01*
X1292370Y740168D01*
X1292305Y740311D01*
X1292237Y740452D01*
X1292164Y740592D01*
X1292089Y740730D01*
X1292010Y740865D01*
X1291927Y740999D01*
X1291841Y741130D01*
X1291752Y741260D01*
X1291660Y741387D01*
X1291564Y741512D01*
X1291466Y741634D01*
X1291364Y741754D01*
X1291259Y741871D01*
X1291152Y741985D01*
X1291042Y742097D01*
X1290928Y742206D01*
X1290813Y742312D01*
X1290694Y742415D01*
X1290573Y742515D01*
X1290450Y742612D01*
X1290324Y742706D01*
X1290195Y742797D01*
X1290065Y742885D01*
X1289932Y742969D01*
X1289798Y743050D01*
X1289661Y743127D01*
X1289522Y743201D01*
X1289382Y743271D01*
X1289240Y743338D01*
X1289096Y743401D01*
X1288951Y743461D01*
X1288804Y743517D01*
X1288656Y743569D01*
X1288507Y743618D01*
X1288356Y743663D01*
X1288204Y743704D01*
X1288052Y743741D01*
X1287898Y743774D01*
X1287744Y743804D01*
X1287589Y743829D01*
X1287433Y743851D01*
X1287277Y743868D01*
X1287121Y743882D01*
X1286964Y743892D01*
X1286807Y743898D01*
X1286650Y743900D01*
X1282900Y738900D02*
X1282985Y738898D01*
X1283071Y738892D01*
X1283155Y738883D01*
X1283240Y738869D01*
X1283323Y738852D01*
X1283406Y738830D01*
X1283488Y738806D01*
X1283568Y738777D01*
X1283647Y738745D01*
X1283725Y738709D01*
X1283800Y738670D01*
X1283874Y738627D01*
X1283946Y738581D01*
X1284016Y738532D01*
X1284083Y738479D01*
X1284148Y738424D01*
X1284211Y738366D01*
X1284270Y738305D01*
X1284327Y738241D01*
X1284381Y738175D01*
X1284432Y738106D01*
X1284479Y738035D01*
X1284524Y737963D01*
X1284565Y737888D01*
X1284602Y737811D01*
X1284636Y737733D01*
X1284667Y737653D01*
X1284693Y737572D01*
X1284717Y737490D01*
X1284736Y737406D01*
X1284751Y737323D01*
X1284763Y737238D01*
X1284771Y737153D01*
X1284775Y737068D01*
X1284775Y736982D01*
X1284771Y736897D01*
X1284763Y736812D01*
X1284751Y736727D01*
X1284736Y736644D01*
X1284717Y736560D01*
X1284693Y736478D01*
X1284667Y736397D01*
X1284636Y736317D01*
X1284602Y736239D01*
X1284565Y736162D01*
X1284524Y736088D01*
X1284479Y736015D01*
X1284432Y735944D01*
X1284381Y735875D01*
X1284327Y735809D01*
X1284270Y735745D01*
X1284211Y735684D01*
X1284148Y735626D01*
X1284083Y735571D01*
X1284016Y735518D01*
X1283946Y735469D01*
X1283874Y735423D01*
X1283800Y735380D01*
X1283725Y735341D01*
X1283647Y735305D01*
X1283568Y735273D01*
X1283488Y735244D01*
X1283406Y735220D01*
X1283323Y735198D01*
X1283240Y735181D01*
X1283155Y735167D01*
X1283071Y735158D01*
X1282985Y735152D01*
X1282900Y735150D01*
X1231650Y743900D02*
X1231650Y723900D01*
X1237900Y723900D01*
X1237900Y733900D01*
X1237900Y743900D01*
X1231650Y743900D01*
X1237900Y743900D02*
X1245400Y738900D01*
X1237900Y733900D01*
X1245400Y728900D01*
X1237900Y723900D01*
X1245400Y723900D01*
X1245400Y743900D02*
X1237900Y743900D01*
X1252900Y743900D02*
X1252900Y723900D01*
X1270400Y723900D01*
X1270400Y728900D01*
X1259150Y728900D01*
X1259150Y731400D01*
X1270400Y731400D01*
X1270400Y736400D01*
X1259150Y736400D01*
X1259150Y738900D01*
X1270400Y738900D01*
X1270400Y743900D01*
X1252900Y743900D01*
X1272900Y743900D02*
X1272900Y723900D01*
X1279150Y723900D01*
X1279150Y731400D01*
X1284150Y723900D01*
X1291650Y723900D01*
X1286650Y731400D01*
X1279150Y735150D02*
X1279150Y738900D01*
X1272900Y743900D02*
X1286650Y743900D01*
X1282900Y738900D02*
X1279150Y738900D01*
X1279150Y735150D02*
X1282900Y735150D01*
X1306650Y733900D02*
X1311650Y733900D01*
X1306650Y733900D02*
X1306650Y728900D01*
X1311600Y738900D02*
X1311600Y743350D01*
X1311650Y733900D02*
X1311650Y725150D01*
D12*
X1233720Y716327D02*
X1232027Y716327D01*
X1232027Y720137D01*
X1233720Y720137D01*
X1233297Y718444D02*
X1232027Y718444D01*
X1237148Y720137D02*
X1237148Y716327D01*
X1238841Y716327D01*
X1242268Y716327D02*
X1243961Y716327D01*
X1242268Y716327D02*
X1242268Y720137D01*
X1243961Y720137D01*
X1243538Y718444D02*
X1242268Y718444D01*
X1248098Y716327D02*
X1248944Y716327D01*
X1248098Y716327D02*
X1248043Y716329D01*
X1247987Y716334D01*
X1247933Y716343D01*
X1247879Y716356D01*
X1247826Y716372D01*
X1247774Y716391D01*
X1247723Y716414D01*
X1247675Y716440D01*
X1247627Y716470D01*
X1247582Y716502D01*
X1247540Y716537D01*
X1247499Y716575D01*
X1247461Y716616D01*
X1247426Y716658D01*
X1247394Y716703D01*
X1247364Y716751D01*
X1247338Y716799D01*
X1247315Y716850D01*
X1247296Y716902D01*
X1247280Y716955D01*
X1247267Y717009D01*
X1247258Y717063D01*
X1247253Y717119D01*
X1247251Y717174D01*
X1247251Y719290D01*
X1247253Y719348D01*
X1247259Y719405D01*
X1247269Y719462D01*
X1247282Y719519D01*
X1247300Y719574D01*
X1247321Y719627D01*
X1247346Y719680D01*
X1247374Y719730D01*
X1247406Y719778D01*
X1247441Y719825D01*
X1247479Y719868D01*
X1247520Y719909D01*
X1247563Y719947D01*
X1247610Y719982D01*
X1247658Y720014D01*
X1247708Y720042D01*
X1247761Y720067D01*
X1247814Y720088D01*
X1247869Y720106D01*
X1247926Y720119D01*
X1247983Y720129D01*
X1248040Y720135D01*
X1248098Y720137D01*
X1248944Y720137D01*
X1253073Y720137D02*
X1253073Y716327D01*
X1252015Y720137D02*
X1254132Y720137D01*
X1257523Y720137D02*
X1257523Y716327D01*
X1257523Y720137D02*
X1258581Y720137D01*
X1258645Y720135D01*
X1258709Y720129D01*
X1258772Y720120D01*
X1258834Y720106D01*
X1258896Y720089D01*
X1258956Y720068D01*
X1259015Y720044D01*
X1259073Y720016D01*
X1259128Y719984D01*
X1259182Y719950D01*
X1259233Y719912D01*
X1259283Y719871D01*
X1259329Y719827D01*
X1259373Y719781D01*
X1259414Y719731D01*
X1259452Y719680D01*
X1259486Y719626D01*
X1259518Y719571D01*
X1259546Y719513D01*
X1259570Y719454D01*
X1259591Y719394D01*
X1259608Y719332D01*
X1259622Y719270D01*
X1259631Y719207D01*
X1259637Y719143D01*
X1259639Y719079D01*
X1259637Y719015D01*
X1259631Y718951D01*
X1259622Y718888D01*
X1259608Y718826D01*
X1259591Y718764D01*
X1259570Y718704D01*
X1259546Y718645D01*
X1259518Y718587D01*
X1259486Y718532D01*
X1259452Y718478D01*
X1259414Y718427D01*
X1259373Y718377D01*
X1259329Y718331D01*
X1259283Y718287D01*
X1259233Y718246D01*
X1259182Y718208D01*
X1259128Y718174D01*
X1259073Y718142D01*
X1259015Y718114D01*
X1258956Y718090D01*
X1258896Y718069D01*
X1258834Y718052D01*
X1258772Y718038D01*
X1258709Y718029D01*
X1258645Y718023D01*
X1258581Y718021D01*
X1258581Y718020D02*
X1257523Y718020D01*
X1258793Y718020D02*
X1259639Y716327D01*
X1263110Y717385D02*
X1263110Y719079D01*
X1263112Y719143D01*
X1263118Y719207D01*
X1263127Y719270D01*
X1263141Y719332D01*
X1263158Y719394D01*
X1263179Y719454D01*
X1263203Y719513D01*
X1263231Y719571D01*
X1263263Y719626D01*
X1263297Y719680D01*
X1263335Y719731D01*
X1263376Y719781D01*
X1263420Y719827D01*
X1263466Y719871D01*
X1263516Y719912D01*
X1263567Y719950D01*
X1263621Y719984D01*
X1263676Y720016D01*
X1263734Y720044D01*
X1263793Y720068D01*
X1263853Y720089D01*
X1263915Y720106D01*
X1263977Y720120D01*
X1264040Y720129D01*
X1264104Y720135D01*
X1264168Y720137D01*
X1264232Y720135D01*
X1264296Y720129D01*
X1264359Y720120D01*
X1264421Y720106D01*
X1264483Y720089D01*
X1264543Y720068D01*
X1264602Y720044D01*
X1264660Y720016D01*
X1264715Y719984D01*
X1264769Y719950D01*
X1264820Y719912D01*
X1264870Y719871D01*
X1264916Y719827D01*
X1264960Y719781D01*
X1265001Y719731D01*
X1265039Y719680D01*
X1265073Y719626D01*
X1265105Y719571D01*
X1265133Y719513D01*
X1265157Y719454D01*
X1265178Y719394D01*
X1265195Y719332D01*
X1265209Y719270D01*
X1265218Y719207D01*
X1265224Y719143D01*
X1265226Y719079D01*
X1265226Y717385D01*
X1265224Y717321D01*
X1265218Y717257D01*
X1265209Y717194D01*
X1265195Y717132D01*
X1265178Y717070D01*
X1265157Y717010D01*
X1265133Y716951D01*
X1265105Y716893D01*
X1265073Y716838D01*
X1265039Y716784D01*
X1265001Y716733D01*
X1264960Y716683D01*
X1264916Y716637D01*
X1264870Y716593D01*
X1264820Y716552D01*
X1264769Y716514D01*
X1264715Y716480D01*
X1264660Y716448D01*
X1264602Y716420D01*
X1264543Y716396D01*
X1264483Y716375D01*
X1264421Y716358D01*
X1264359Y716344D01*
X1264296Y716335D01*
X1264232Y716329D01*
X1264168Y716327D01*
X1264104Y716329D01*
X1264040Y716335D01*
X1263977Y716344D01*
X1263915Y716358D01*
X1263853Y716375D01*
X1263793Y716396D01*
X1263734Y716420D01*
X1263676Y716448D01*
X1263621Y716480D01*
X1263567Y716514D01*
X1263516Y716552D01*
X1263466Y716593D01*
X1263420Y716637D01*
X1263376Y716683D01*
X1263335Y716733D01*
X1263297Y716784D01*
X1263263Y716838D01*
X1263231Y716893D01*
X1263203Y716951D01*
X1263179Y717010D01*
X1263158Y717070D01*
X1263141Y717132D01*
X1263127Y717194D01*
X1263118Y717257D01*
X1263112Y717321D01*
X1263110Y717385D01*
X1268840Y716327D02*
X1268840Y720137D01*
X1270957Y716327D01*
X1270957Y720137D01*
X1274897Y720137D02*
X1274897Y716327D01*
X1274474Y716327D02*
X1275320Y716327D01*
X1275320Y720137D02*
X1274474Y720137D01*
X1279553Y716327D02*
X1280399Y716327D01*
X1279553Y716327D02*
X1279498Y716329D01*
X1279442Y716334D01*
X1279388Y716343D01*
X1279334Y716356D01*
X1279281Y716372D01*
X1279229Y716391D01*
X1279178Y716414D01*
X1279130Y716440D01*
X1279082Y716470D01*
X1279037Y716502D01*
X1278995Y716537D01*
X1278954Y716575D01*
X1278916Y716616D01*
X1278881Y716658D01*
X1278849Y716703D01*
X1278819Y716751D01*
X1278793Y716799D01*
X1278770Y716850D01*
X1278751Y716902D01*
X1278735Y716955D01*
X1278722Y717009D01*
X1278713Y717063D01*
X1278708Y717119D01*
X1278706Y717174D01*
X1278706Y719290D01*
X1278708Y719348D01*
X1278714Y719405D01*
X1278724Y719462D01*
X1278737Y719519D01*
X1278755Y719574D01*
X1278776Y719627D01*
X1278801Y719680D01*
X1278829Y719730D01*
X1278861Y719778D01*
X1278896Y719825D01*
X1278934Y719868D01*
X1278975Y719909D01*
X1279018Y719947D01*
X1279065Y719982D01*
X1279113Y720014D01*
X1279163Y720042D01*
X1279216Y720067D01*
X1279269Y720088D01*
X1279324Y720106D01*
X1279381Y720119D01*
X1279438Y720129D01*
X1279495Y720135D01*
X1279553Y720137D01*
X1280399Y720137D01*
X1284862Y716327D02*
X1284920Y716329D01*
X1284977Y716335D01*
X1285034Y716345D01*
X1285091Y716358D01*
X1285146Y716376D01*
X1285199Y716397D01*
X1285252Y716422D01*
X1285302Y716450D01*
X1285350Y716482D01*
X1285397Y716517D01*
X1285440Y716555D01*
X1285481Y716596D01*
X1285519Y716639D01*
X1285554Y716686D01*
X1285586Y716734D01*
X1285614Y716784D01*
X1285639Y716837D01*
X1285660Y716890D01*
X1285678Y716945D01*
X1285691Y717002D01*
X1285701Y717059D01*
X1285707Y717116D01*
X1285709Y717174D01*
X1284862Y716327D02*
X1284779Y716329D01*
X1284696Y716335D01*
X1284614Y716344D01*
X1284532Y716358D01*
X1284451Y716375D01*
X1284370Y716396D01*
X1284291Y716421D01*
X1284213Y716449D01*
X1284136Y716481D01*
X1284061Y716516D01*
X1283988Y716555D01*
X1283916Y716598D01*
X1283847Y716643D01*
X1283780Y716692D01*
X1283715Y716744D01*
X1283652Y716798D01*
X1283592Y716856D01*
X1283698Y719290D02*
X1283700Y719345D01*
X1283705Y719401D01*
X1283714Y719455D01*
X1283727Y719509D01*
X1283743Y719562D01*
X1283762Y719614D01*
X1283785Y719665D01*
X1283811Y719714D01*
X1283841Y719761D01*
X1283873Y719806D01*
X1283908Y719848D01*
X1283946Y719889D01*
X1283987Y719927D01*
X1284029Y719962D01*
X1284074Y719994D01*
X1284122Y720024D01*
X1284170Y720050D01*
X1284221Y720073D01*
X1284273Y720092D01*
X1284326Y720108D01*
X1284380Y720121D01*
X1284434Y720130D01*
X1284490Y720135D01*
X1284545Y720137D01*
X1284545Y720138D02*
X1284624Y720136D01*
X1284702Y720130D01*
X1284780Y720121D01*
X1284857Y720107D01*
X1284934Y720090D01*
X1285010Y720068D01*
X1285084Y720044D01*
X1285158Y720015D01*
X1285229Y719983D01*
X1285299Y719947D01*
X1285368Y719908D01*
X1285434Y719866D01*
X1285498Y719820D01*
X1284121Y718549D02*
X1284074Y718579D01*
X1284029Y718612D01*
X1283986Y718648D01*
X1283946Y718686D01*
X1283908Y718727D01*
X1283873Y718770D01*
X1283841Y718816D01*
X1283811Y718863D01*
X1283785Y718913D01*
X1283762Y718964D01*
X1283743Y719016D01*
X1283727Y719069D01*
X1283714Y719124D01*
X1283705Y719179D01*
X1283700Y719234D01*
X1283698Y719290D01*
X1285286Y717915D02*
X1285333Y717885D01*
X1285378Y717852D01*
X1285421Y717816D01*
X1285461Y717778D01*
X1285499Y717737D01*
X1285534Y717694D01*
X1285566Y717648D01*
X1285596Y717601D01*
X1285622Y717551D01*
X1285645Y717500D01*
X1285664Y717448D01*
X1285680Y717395D01*
X1285693Y717340D01*
X1285702Y717285D01*
X1285707Y717230D01*
X1285709Y717174D01*
X1285285Y717915D02*
X1284121Y718550D01*
D13*
X1207008Y800608D02*
X1214797Y812292D01*
X1207008Y812292D02*
X1214797Y800608D01*
X1219087Y809696D02*
X1222333Y812292D01*
X1222333Y800608D01*
X1225578Y800608D02*
X1219087Y800608D01*
D14*
X1344930Y549910D02*
X1344930Y466090D01*
X1144270Y466090D02*
X1144270Y549910D01*
D11*
X1148080Y546100D02*
X1148080Y471170D01*
X1341120Y471170D02*
X1341120Y546100D01*
D14*
X1344930Y466090D02*
X1316990Y466090D01*
X1299210Y466090D02*
X1291590Y466090D01*
X1273810Y466090D02*
X1266190Y466090D01*
X1248410Y466090D02*
X1240790Y466090D01*
X1223010Y466090D02*
X1215390Y466090D01*
X1197610Y466090D02*
X1189990Y466090D01*
X1172210Y466090D02*
X1144270Y466090D01*
X1316990Y549910D02*
X1344930Y549910D01*
X1299210Y549910D02*
X1291590Y549910D01*
X1273810Y549910D02*
X1266190Y549910D01*
X1248410Y549910D02*
X1240790Y549910D01*
X1223010Y549910D02*
X1215390Y549910D01*
X1197610Y549910D02*
X1189990Y549910D01*
X1172210Y549910D02*
X1144270Y549910D01*
D11*
X1318260Y546100D02*
X1341120Y546100D01*
X1170940Y546100D02*
X1148080Y546100D01*
X1318260Y471170D02*
X1341120Y471170D01*
X1170940Y471170D02*
X1148080Y471170D01*
D10*
X1150620Y474980D02*
X1150622Y475051D01*
X1150628Y475122D01*
X1150638Y475193D01*
X1150652Y475263D01*
X1150670Y475332D01*
X1150691Y475399D01*
X1150717Y475466D01*
X1150746Y475531D01*
X1150778Y475594D01*
X1150815Y475656D01*
X1150854Y475715D01*
X1150897Y475772D01*
X1150943Y475826D01*
X1150992Y475878D01*
X1151044Y475927D01*
X1151098Y475973D01*
X1151155Y476016D01*
X1151214Y476055D01*
X1151276Y476092D01*
X1151339Y476124D01*
X1151404Y476153D01*
X1151471Y476179D01*
X1151538Y476200D01*
X1151607Y476218D01*
X1151677Y476232D01*
X1151748Y476242D01*
X1151819Y476248D01*
X1151890Y476250D01*
X1151961Y476248D01*
X1152032Y476242D01*
X1152103Y476232D01*
X1152173Y476218D01*
X1152242Y476200D01*
X1152309Y476179D01*
X1152376Y476153D01*
X1152441Y476124D01*
X1152504Y476092D01*
X1152566Y476055D01*
X1152625Y476016D01*
X1152682Y475973D01*
X1152736Y475927D01*
X1152788Y475878D01*
X1152837Y475826D01*
X1152883Y475772D01*
X1152926Y475715D01*
X1152965Y475656D01*
X1153002Y475594D01*
X1153034Y475531D01*
X1153063Y475466D01*
X1153089Y475399D01*
X1153110Y475332D01*
X1153128Y475263D01*
X1153142Y475193D01*
X1153152Y475122D01*
X1153158Y475051D01*
X1153160Y474980D01*
X1153158Y474909D01*
X1153152Y474838D01*
X1153142Y474767D01*
X1153128Y474697D01*
X1153110Y474628D01*
X1153089Y474561D01*
X1153063Y474494D01*
X1153034Y474429D01*
X1153002Y474366D01*
X1152965Y474304D01*
X1152926Y474245D01*
X1152883Y474188D01*
X1152837Y474134D01*
X1152788Y474082D01*
X1152736Y474033D01*
X1152682Y473987D01*
X1152625Y473944D01*
X1152566Y473905D01*
X1152504Y473868D01*
X1152441Y473836D01*
X1152376Y473807D01*
X1152309Y473781D01*
X1152242Y473760D01*
X1152173Y473742D01*
X1152103Y473728D01*
X1152032Y473718D01*
X1151961Y473712D01*
X1151890Y473710D01*
X1151819Y473712D01*
X1151748Y473718D01*
X1151677Y473728D01*
X1151607Y473742D01*
X1151538Y473760D01*
X1151471Y473781D01*
X1151404Y473807D01*
X1151339Y473836D01*
X1151276Y473868D01*
X1151214Y473905D01*
X1151155Y473944D01*
X1151098Y473987D01*
X1151044Y474033D01*
X1150992Y474082D01*
X1150943Y474134D01*
X1150897Y474188D01*
X1150854Y474245D01*
X1150815Y474304D01*
X1150778Y474366D01*
X1150746Y474429D01*
X1150717Y474494D01*
X1150691Y474561D01*
X1150670Y474628D01*
X1150652Y474697D01*
X1150638Y474767D01*
X1150628Y474838D01*
X1150622Y474909D01*
X1150620Y474980D01*
D15*
X1143635Y559435D02*
X1143635Y570865D01*
X1146810Y570865D01*
X1146921Y570863D01*
X1147031Y570857D01*
X1147142Y570848D01*
X1147252Y570834D01*
X1147361Y570817D01*
X1147470Y570796D01*
X1147578Y570771D01*
X1147685Y570742D01*
X1147791Y570710D01*
X1147896Y570674D01*
X1147999Y570634D01*
X1148101Y570591D01*
X1148202Y570544D01*
X1148301Y570493D01*
X1148398Y570440D01*
X1148492Y570383D01*
X1148585Y570322D01*
X1148676Y570259D01*
X1148765Y570192D01*
X1148851Y570122D01*
X1148934Y570049D01*
X1149016Y569974D01*
X1149094Y569896D01*
X1149169Y569814D01*
X1149242Y569731D01*
X1149312Y569645D01*
X1149379Y569556D01*
X1149442Y569465D01*
X1149503Y569372D01*
X1149560Y569278D01*
X1149613Y569181D01*
X1149664Y569082D01*
X1149711Y568981D01*
X1149754Y568879D01*
X1149794Y568776D01*
X1149830Y568671D01*
X1149862Y568565D01*
X1149891Y568458D01*
X1149916Y568350D01*
X1149937Y568241D01*
X1149954Y568132D01*
X1149968Y568022D01*
X1149977Y567911D01*
X1149983Y567801D01*
X1149985Y567690D01*
X1149985Y562610D01*
X1149983Y562499D01*
X1149977Y562389D01*
X1149968Y562278D01*
X1149954Y562168D01*
X1149937Y562059D01*
X1149916Y561950D01*
X1149891Y561842D01*
X1149862Y561735D01*
X1149830Y561629D01*
X1149794Y561524D01*
X1149754Y561421D01*
X1149711Y561319D01*
X1149664Y561218D01*
X1149613Y561119D01*
X1149560Y561023D01*
X1149503Y560928D01*
X1149442Y560835D01*
X1149379Y560744D01*
X1149312Y560655D01*
X1149242Y560569D01*
X1149169Y560486D01*
X1149094Y560404D01*
X1149016Y560326D01*
X1148934Y560251D01*
X1148851Y560178D01*
X1148765Y560108D01*
X1148676Y560041D01*
X1148585Y559978D01*
X1148492Y559917D01*
X1148398Y559860D01*
X1148301Y559807D01*
X1148202Y559756D01*
X1148101Y559709D01*
X1147999Y559666D01*
X1147896Y559626D01*
X1147791Y559590D01*
X1147685Y559558D01*
X1147578Y559529D01*
X1147470Y559504D01*
X1147361Y559483D01*
X1147252Y559466D01*
X1147142Y559452D01*
X1147031Y559443D01*
X1146921Y559437D01*
X1146810Y559435D01*
X1143635Y559435D01*
X1156335Y559435D02*
X1156335Y570865D01*
X1155065Y559435D02*
X1157605Y559435D01*
X1157605Y570865D02*
X1155065Y570865D01*
X1165733Y559435D02*
X1165833Y559437D01*
X1165932Y559443D01*
X1166032Y559453D01*
X1166130Y559466D01*
X1166229Y559484D01*
X1166326Y559505D01*
X1166422Y559530D01*
X1166518Y559559D01*
X1166612Y559592D01*
X1166705Y559628D01*
X1166796Y559668D01*
X1166886Y559712D01*
X1166974Y559759D01*
X1167060Y559809D01*
X1167144Y559863D01*
X1167226Y559920D01*
X1167305Y559980D01*
X1167383Y560044D01*
X1167457Y560110D01*
X1167529Y560179D01*
X1167598Y560251D01*
X1167664Y560325D01*
X1167728Y560403D01*
X1167788Y560482D01*
X1167845Y560564D01*
X1167899Y560648D01*
X1167949Y560734D01*
X1167996Y560822D01*
X1168040Y560912D01*
X1168080Y561003D01*
X1168116Y561096D01*
X1168149Y561190D01*
X1168178Y561286D01*
X1168203Y561382D01*
X1168224Y561479D01*
X1168242Y561578D01*
X1168255Y561676D01*
X1168265Y561776D01*
X1168271Y561875D01*
X1168273Y561975D01*
X1165733Y559435D02*
X1165592Y559437D01*
X1165451Y559442D01*
X1165310Y559452D01*
X1165169Y559465D01*
X1165029Y559481D01*
X1164889Y559502D01*
X1164750Y559526D01*
X1164611Y559554D01*
X1164474Y559585D01*
X1164337Y559620D01*
X1164201Y559658D01*
X1164066Y559700D01*
X1163933Y559746D01*
X1163800Y559795D01*
X1163669Y559848D01*
X1163540Y559904D01*
X1163411Y559963D01*
X1163285Y560026D01*
X1163160Y560092D01*
X1163037Y560161D01*
X1162916Y560234D01*
X1162797Y560310D01*
X1162679Y560389D01*
X1162564Y560470D01*
X1162452Y560555D01*
X1162341Y560643D01*
X1162233Y560734D01*
X1162127Y560827D01*
X1162024Y560924D01*
X1161923Y561023D01*
X1162241Y568325D02*
X1162243Y568425D01*
X1162249Y568524D01*
X1162259Y568624D01*
X1162272Y568722D01*
X1162290Y568821D01*
X1162311Y568918D01*
X1162336Y569014D01*
X1162365Y569110D01*
X1162398Y569204D01*
X1162434Y569297D01*
X1162474Y569388D01*
X1162518Y569478D01*
X1162565Y569566D01*
X1162615Y569652D01*
X1162669Y569736D01*
X1162726Y569818D01*
X1162786Y569897D01*
X1162850Y569975D01*
X1162916Y570049D01*
X1162985Y570121D01*
X1163057Y570190D01*
X1163131Y570256D01*
X1163209Y570320D01*
X1163288Y570380D01*
X1163370Y570437D01*
X1163454Y570491D01*
X1163540Y570541D01*
X1163628Y570588D01*
X1163718Y570632D01*
X1163809Y570672D01*
X1163902Y570708D01*
X1163996Y570741D01*
X1164092Y570770D01*
X1164188Y570795D01*
X1164285Y570816D01*
X1164384Y570834D01*
X1164482Y570847D01*
X1164582Y570857D01*
X1164681Y570863D01*
X1164781Y570865D01*
X1164781Y570866D02*
X1164914Y570864D01*
X1165047Y570859D01*
X1165180Y570849D01*
X1165313Y570836D01*
X1165445Y570819D01*
X1165577Y570799D01*
X1165708Y570775D01*
X1165838Y570747D01*
X1165968Y570716D01*
X1166096Y570681D01*
X1166224Y570642D01*
X1166350Y570600D01*
X1166475Y570554D01*
X1166599Y570505D01*
X1166722Y570453D01*
X1166843Y570397D01*
X1166962Y570337D01*
X1167080Y570275D01*
X1167195Y570209D01*
X1167309Y570140D01*
X1167421Y570067D01*
X1167531Y569992D01*
X1167639Y569913D01*
X1163510Y566102D02*
X1163426Y566154D01*
X1163343Y566209D01*
X1163263Y566268D01*
X1163185Y566329D01*
X1163110Y566393D01*
X1163037Y566461D01*
X1162966Y566531D01*
X1162899Y566603D01*
X1162834Y566678D01*
X1162772Y566756D01*
X1162713Y566836D01*
X1162657Y566918D01*
X1162605Y567002D01*
X1162556Y567088D01*
X1162510Y567176D01*
X1162467Y567266D01*
X1162428Y567357D01*
X1162393Y567450D01*
X1162361Y567544D01*
X1162333Y567639D01*
X1162308Y567735D01*
X1162288Y567832D01*
X1162270Y567930D01*
X1162257Y568028D01*
X1162248Y568127D01*
X1162242Y568226D01*
X1162240Y568325D01*
X1167003Y564198D02*
X1167087Y564146D01*
X1167170Y564091D01*
X1167250Y564032D01*
X1167328Y563971D01*
X1167403Y563907D01*
X1167476Y563839D01*
X1167547Y563769D01*
X1167614Y563697D01*
X1167679Y563622D01*
X1167741Y563544D01*
X1167800Y563464D01*
X1167856Y563382D01*
X1167908Y563298D01*
X1167957Y563212D01*
X1168003Y563124D01*
X1168046Y563034D01*
X1168085Y562943D01*
X1168120Y562850D01*
X1168152Y562756D01*
X1168180Y562661D01*
X1168205Y562565D01*
X1168225Y562468D01*
X1168243Y562370D01*
X1168256Y562272D01*
X1168265Y562173D01*
X1168271Y562074D01*
X1168273Y561975D01*
X1167003Y564198D02*
X1163511Y566103D01*
X1172972Y568325D02*
X1176147Y570865D01*
X1176147Y559435D01*
X1172972Y559435D02*
X1179322Y559435D01*
D14*
X938530Y529590D02*
X938530Y613410D01*
X737870Y613410D02*
X737870Y529590D01*
D11*
X741680Y534670D02*
X741680Y609600D01*
X934720Y609600D02*
X934720Y534670D01*
D14*
X938530Y529590D02*
X910590Y529590D01*
X892810Y529590D02*
X885190Y529590D01*
X867410Y529590D02*
X859790Y529590D01*
X842010Y529590D02*
X834390Y529590D01*
X816610Y529590D02*
X808990Y529590D01*
X791210Y529590D02*
X783590Y529590D01*
X765810Y529590D02*
X737870Y529590D01*
X910590Y613410D02*
X938530Y613410D01*
X892810Y613410D02*
X885190Y613410D01*
X867410Y613410D02*
X859790Y613410D01*
X842010Y613410D02*
X834390Y613410D01*
X816610Y613410D02*
X808990Y613410D01*
X791210Y613410D02*
X783590Y613410D01*
X765810Y613410D02*
X737870Y613410D01*
D11*
X911860Y609600D02*
X934720Y609600D01*
X764540Y609600D02*
X741680Y609600D01*
X911860Y534670D02*
X934720Y534670D01*
X764540Y534670D02*
X741680Y534670D01*
D10*
X744220Y538480D02*
X744222Y538551D01*
X744228Y538622D01*
X744238Y538693D01*
X744252Y538763D01*
X744270Y538832D01*
X744291Y538899D01*
X744317Y538966D01*
X744346Y539031D01*
X744378Y539094D01*
X744415Y539156D01*
X744454Y539215D01*
X744497Y539272D01*
X744543Y539326D01*
X744592Y539378D01*
X744644Y539427D01*
X744698Y539473D01*
X744755Y539516D01*
X744814Y539555D01*
X744876Y539592D01*
X744939Y539624D01*
X745004Y539653D01*
X745071Y539679D01*
X745138Y539700D01*
X745207Y539718D01*
X745277Y539732D01*
X745348Y539742D01*
X745419Y539748D01*
X745490Y539750D01*
X745561Y539748D01*
X745632Y539742D01*
X745703Y539732D01*
X745773Y539718D01*
X745842Y539700D01*
X745909Y539679D01*
X745976Y539653D01*
X746041Y539624D01*
X746104Y539592D01*
X746166Y539555D01*
X746225Y539516D01*
X746282Y539473D01*
X746336Y539427D01*
X746388Y539378D01*
X746437Y539326D01*
X746483Y539272D01*
X746526Y539215D01*
X746565Y539156D01*
X746602Y539094D01*
X746634Y539031D01*
X746663Y538966D01*
X746689Y538899D01*
X746710Y538832D01*
X746728Y538763D01*
X746742Y538693D01*
X746752Y538622D01*
X746758Y538551D01*
X746760Y538480D01*
X746758Y538409D01*
X746752Y538338D01*
X746742Y538267D01*
X746728Y538197D01*
X746710Y538128D01*
X746689Y538061D01*
X746663Y537994D01*
X746634Y537929D01*
X746602Y537866D01*
X746565Y537804D01*
X746526Y537745D01*
X746483Y537688D01*
X746437Y537634D01*
X746388Y537582D01*
X746336Y537533D01*
X746282Y537487D01*
X746225Y537444D01*
X746166Y537405D01*
X746104Y537368D01*
X746041Y537336D01*
X745976Y537307D01*
X745909Y537281D01*
X745842Y537260D01*
X745773Y537242D01*
X745703Y537228D01*
X745632Y537218D01*
X745561Y537212D01*
X745490Y537210D01*
X745419Y537212D01*
X745348Y537218D01*
X745277Y537228D01*
X745207Y537242D01*
X745138Y537260D01*
X745071Y537281D01*
X745004Y537307D01*
X744939Y537336D01*
X744876Y537368D01*
X744814Y537405D01*
X744755Y537444D01*
X744698Y537487D01*
X744644Y537533D01*
X744592Y537582D01*
X744543Y537634D01*
X744497Y537688D01*
X744454Y537745D01*
X744415Y537804D01*
X744378Y537866D01*
X744346Y537929D01*
X744317Y537994D01*
X744291Y538061D01*
X744270Y538128D01*
X744252Y538197D01*
X744238Y538267D01*
X744228Y538338D01*
X744222Y538409D01*
X744220Y538480D01*
D15*
X737235Y622935D02*
X737235Y634365D01*
X740410Y634365D01*
X740521Y634363D01*
X740631Y634357D01*
X740742Y634348D01*
X740852Y634334D01*
X740961Y634317D01*
X741070Y634296D01*
X741178Y634271D01*
X741285Y634242D01*
X741391Y634210D01*
X741496Y634174D01*
X741599Y634134D01*
X741701Y634091D01*
X741802Y634044D01*
X741901Y633993D01*
X741998Y633940D01*
X742092Y633883D01*
X742185Y633822D01*
X742276Y633759D01*
X742365Y633692D01*
X742451Y633622D01*
X742534Y633549D01*
X742616Y633474D01*
X742694Y633396D01*
X742769Y633314D01*
X742842Y633231D01*
X742912Y633145D01*
X742979Y633056D01*
X743042Y632965D01*
X743103Y632872D01*
X743160Y632778D01*
X743213Y632681D01*
X743264Y632582D01*
X743311Y632481D01*
X743354Y632379D01*
X743394Y632276D01*
X743430Y632171D01*
X743462Y632065D01*
X743491Y631958D01*
X743516Y631850D01*
X743537Y631741D01*
X743554Y631632D01*
X743568Y631522D01*
X743577Y631411D01*
X743583Y631301D01*
X743585Y631190D01*
X743585Y626110D01*
X743583Y625999D01*
X743577Y625889D01*
X743568Y625778D01*
X743554Y625668D01*
X743537Y625559D01*
X743516Y625450D01*
X743491Y625342D01*
X743462Y625235D01*
X743430Y625129D01*
X743394Y625024D01*
X743354Y624921D01*
X743311Y624819D01*
X743264Y624718D01*
X743213Y624619D01*
X743160Y624523D01*
X743103Y624428D01*
X743042Y624335D01*
X742979Y624244D01*
X742912Y624155D01*
X742842Y624069D01*
X742769Y623986D01*
X742694Y623904D01*
X742616Y623826D01*
X742534Y623751D01*
X742451Y623678D01*
X742365Y623608D01*
X742276Y623541D01*
X742185Y623478D01*
X742092Y623417D01*
X741998Y623360D01*
X741901Y623307D01*
X741802Y623256D01*
X741701Y623209D01*
X741599Y623166D01*
X741496Y623126D01*
X741391Y623090D01*
X741285Y623058D01*
X741178Y623029D01*
X741070Y623004D01*
X740961Y622983D01*
X740852Y622966D01*
X740742Y622952D01*
X740631Y622943D01*
X740521Y622937D01*
X740410Y622935D01*
X737235Y622935D01*
X749935Y622935D02*
X749935Y634365D01*
X748665Y622935D02*
X751205Y622935D01*
X751205Y634365D02*
X748665Y634365D01*
X759333Y622935D02*
X759433Y622937D01*
X759532Y622943D01*
X759632Y622953D01*
X759730Y622966D01*
X759829Y622984D01*
X759926Y623005D01*
X760022Y623030D01*
X760118Y623059D01*
X760212Y623092D01*
X760305Y623128D01*
X760396Y623168D01*
X760486Y623212D01*
X760574Y623259D01*
X760660Y623309D01*
X760744Y623363D01*
X760826Y623420D01*
X760905Y623480D01*
X760983Y623544D01*
X761057Y623610D01*
X761129Y623679D01*
X761198Y623751D01*
X761264Y623825D01*
X761328Y623903D01*
X761388Y623982D01*
X761445Y624064D01*
X761499Y624148D01*
X761549Y624234D01*
X761596Y624322D01*
X761640Y624412D01*
X761680Y624503D01*
X761716Y624596D01*
X761749Y624690D01*
X761778Y624786D01*
X761803Y624882D01*
X761824Y624979D01*
X761842Y625078D01*
X761855Y625176D01*
X761865Y625276D01*
X761871Y625375D01*
X761873Y625475D01*
X759333Y622935D02*
X759192Y622937D01*
X759051Y622942D01*
X758910Y622952D01*
X758769Y622965D01*
X758629Y622981D01*
X758489Y623002D01*
X758350Y623026D01*
X758211Y623054D01*
X758074Y623085D01*
X757937Y623120D01*
X757801Y623158D01*
X757666Y623200D01*
X757533Y623246D01*
X757400Y623295D01*
X757269Y623348D01*
X757140Y623404D01*
X757011Y623463D01*
X756885Y623526D01*
X756760Y623592D01*
X756637Y623661D01*
X756516Y623734D01*
X756397Y623810D01*
X756279Y623889D01*
X756164Y623970D01*
X756052Y624055D01*
X755941Y624143D01*
X755833Y624234D01*
X755727Y624327D01*
X755624Y624424D01*
X755523Y624523D01*
X755841Y631825D02*
X755843Y631925D01*
X755849Y632024D01*
X755859Y632124D01*
X755872Y632222D01*
X755890Y632321D01*
X755911Y632418D01*
X755936Y632514D01*
X755965Y632610D01*
X755998Y632704D01*
X756034Y632797D01*
X756074Y632888D01*
X756118Y632978D01*
X756165Y633066D01*
X756215Y633152D01*
X756269Y633236D01*
X756326Y633318D01*
X756386Y633397D01*
X756450Y633475D01*
X756516Y633549D01*
X756585Y633621D01*
X756657Y633690D01*
X756731Y633756D01*
X756809Y633820D01*
X756888Y633880D01*
X756970Y633937D01*
X757054Y633991D01*
X757140Y634041D01*
X757228Y634088D01*
X757318Y634132D01*
X757409Y634172D01*
X757502Y634208D01*
X757596Y634241D01*
X757692Y634270D01*
X757788Y634295D01*
X757885Y634316D01*
X757984Y634334D01*
X758082Y634347D01*
X758182Y634357D01*
X758281Y634363D01*
X758381Y634365D01*
X758381Y634366D02*
X758514Y634364D01*
X758647Y634359D01*
X758780Y634349D01*
X758913Y634336D01*
X759045Y634319D01*
X759177Y634299D01*
X759308Y634275D01*
X759438Y634247D01*
X759568Y634216D01*
X759696Y634181D01*
X759824Y634142D01*
X759950Y634100D01*
X760075Y634054D01*
X760199Y634005D01*
X760322Y633953D01*
X760443Y633897D01*
X760562Y633837D01*
X760680Y633775D01*
X760795Y633709D01*
X760909Y633640D01*
X761021Y633567D01*
X761131Y633492D01*
X761239Y633413D01*
X757110Y629602D02*
X757026Y629654D01*
X756943Y629709D01*
X756863Y629768D01*
X756785Y629829D01*
X756710Y629893D01*
X756637Y629961D01*
X756566Y630031D01*
X756499Y630103D01*
X756434Y630178D01*
X756372Y630256D01*
X756313Y630336D01*
X756257Y630418D01*
X756205Y630502D01*
X756156Y630588D01*
X756110Y630676D01*
X756067Y630766D01*
X756028Y630857D01*
X755993Y630950D01*
X755961Y631044D01*
X755933Y631139D01*
X755908Y631235D01*
X755888Y631332D01*
X755870Y631430D01*
X755857Y631528D01*
X755848Y631627D01*
X755842Y631726D01*
X755840Y631825D01*
X760603Y627698D02*
X760687Y627646D01*
X760770Y627591D01*
X760850Y627532D01*
X760928Y627471D01*
X761003Y627407D01*
X761076Y627339D01*
X761147Y627269D01*
X761214Y627197D01*
X761279Y627122D01*
X761341Y627044D01*
X761400Y626964D01*
X761456Y626882D01*
X761508Y626798D01*
X761557Y626712D01*
X761603Y626624D01*
X761646Y626534D01*
X761685Y626443D01*
X761720Y626350D01*
X761752Y626256D01*
X761780Y626161D01*
X761805Y626065D01*
X761825Y625968D01*
X761843Y625870D01*
X761856Y625772D01*
X761865Y625673D01*
X761871Y625574D01*
X761873Y625475D01*
X760603Y627698D02*
X757111Y629603D01*
X770065Y634366D02*
X770169Y634364D01*
X770274Y634358D01*
X770378Y634349D01*
X770481Y634336D01*
X770584Y634318D01*
X770686Y634298D01*
X770788Y634273D01*
X770888Y634245D01*
X770988Y634213D01*
X771086Y634177D01*
X771183Y634138D01*
X771278Y634096D01*
X771372Y634050D01*
X771464Y634000D01*
X771554Y633948D01*
X771642Y633892D01*
X771728Y633832D01*
X771812Y633770D01*
X771893Y633705D01*
X771972Y633637D01*
X772049Y633565D01*
X772122Y633492D01*
X772194Y633415D01*
X772262Y633336D01*
X772327Y633255D01*
X772389Y633171D01*
X772449Y633085D01*
X772505Y632997D01*
X772557Y632907D01*
X772607Y632815D01*
X772653Y632721D01*
X772695Y632626D01*
X772734Y632529D01*
X772770Y632431D01*
X772802Y632331D01*
X772830Y632231D01*
X772855Y632129D01*
X772875Y632027D01*
X772893Y631924D01*
X772906Y631821D01*
X772915Y631717D01*
X772921Y631612D01*
X772923Y631508D01*
X770065Y634365D02*
X769947Y634363D01*
X769828Y634357D01*
X769710Y634348D01*
X769593Y634335D01*
X769476Y634317D01*
X769359Y634297D01*
X769243Y634272D01*
X769128Y634244D01*
X769015Y634211D01*
X768902Y634176D01*
X768790Y634136D01*
X768680Y634094D01*
X768571Y634047D01*
X768463Y633997D01*
X768358Y633944D01*
X768254Y633887D01*
X768152Y633827D01*
X768052Y633764D01*
X767954Y633697D01*
X767858Y633628D01*
X767765Y633555D01*
X767674Y633479D01*
X767585Y633401D01*
X767499Y633319D01*
X767416Y633235D01*
X767335Y633149D01*
X767258Y633059D01*
X767183Y632968D01*
X767111Y632874D01*
X767042Y632777D01*
X766977Y632679D01*
X766914Y632578D01*
X766855Y632475D01*
X766799Y632371D01*
X766747Y632265D01*
X766698Y632157D01*
X766653Y632048D01*
X766611Y631937D01*
X766573Y631825D01*
X771970Y629286D02*
X772046Y629361D01*
X772121Y629440D01*
X772192Y629521D01*
X772261Y629605D01*
X772326Y629691D01*
X772388Y629779D01*
X772448Y629869D01*
X772504Y629961D01*
X772557Y630056D01*
X772606Y630152D01*
X772652Y630250D01*
X772695Y630349D01*
X772734Y630450D01*
X772769Y630552D01*
X772801Y630655D01*
X772829Y630759D01*
X772854Y630864D01*
X772875Y630971D01*
X772892Y631077D01*
X772905Y631184D01*
X772914Y631292D01*
X772920Y631400D01*
X772922Y631508D01*
X771970Y629285D02*
X766572Y622935D01*
X772922Y622935D01*
D14*
X938530Y473710D02*
X938530Y389890D01*
X737870Y389890D02*
X737870Y473710D01*
D11*
X741680Y469900D02*
X741680Y394970D01*
X934720Y394970D02*
X934720Y469900D01*
D14*
X938530Y389890D02*
X910590Y389890D01*
X892810Y389890D02*
X885190Y389890D01*
X867410Y389890D02*
X859790Y389890D01*
X842010Y389890D02*
X834390Y389890D01*
X816610Y389890D02*
X808990Y389890D01*
X791210Y389890D02*
X783590Y389890D01*
X765810Y389890D02*
X737870Y389890D01*
X910590Y473710D02*
X938530Y473710D01*
X892810Y473710D02*
X885190Y473710D01*
X867410Y473710D02*
X859790Y473710D01*
X842010Y473710D02*
X834390Y473710D01*
X816610Y473710D02*
X808990Y473710D01*
X791210Y473710D02*
X783590Y473710D01*
X765810Y473710D02*
X737870Y473710D01*
D11*
X911860Y469900D02*
X934720Y469900D01*
X764540Y469900D02*
X741680Y469900D01*
X911860Y394970D02*
X934720Y394970D01*
X764540Y394970D02*
X741680Y394970D01*
D10*
X744220Y398780D02*
X744222Y398851D01*
X744228Y398922D01*
X744238Y398993D01*
X744252Y399063D01*
X744270Y399132D01*
X744291Y399199D01*
X744317Y399266D01*
X744346Y399331D01*
X744378Y399394D01*
X744415Y399456D01*
X744454Y399515D01*
X744497Y399572D01*
X744543Y399626D01*
X744592Y399678D01*
X744644Y399727D01*
X744698Y399773D01*
X744755Y399816D01*
X744814Y399855D01*
X744876Y399892D01*
X744939Y399924D01*
X745004Y399953D01*
X745071Y399979D01*
X745138Y400000D01*
X745207Y400018D01*
X745277Y400032D01*
X745348Y400042D01*
X745419Y400048D01*
X745490Y400050D01*
X745561Y400048D01*
X745632Y400042D01*
X745703Y400032D01*
X745773Y400018D01*
X745842Y400000D01*
X745909Y399979D01*
X745976Y399953D01*
X746041Y399924D01*
X746104Y399892D01*
X746166Y399855D01*
X746225Y399816D01*
X746282Y399773D01*
X746336Y399727D01*
X746388Y399678D01*
X746437Y399626D01*
X746483Y399572D01*
X746526Y399515D01*
X746565Y399456D01*
X746602Y399394D01*
X746634Y399331D01*
X746663Y399266D01*
X746689Y399199D01*
X746710Y399132D01*
X746728Y399063D01*
X746742Y398993D01*
X746752Y398922D01*
X746758Y398851D01*
X746760Y398780D01*
X746758Y398709D01*
X746752Y398638D01*
X746742Y398567D01*
X746728Y398497D01*
X746710Y398428D01*
X746689Y398361D01*
X746663Y398294D01*
X746634Y398229D01*
X746602Y398166D01*
X746565Y398104D01*
X746526Y398045D01*
X746483Y397988D01*
X746437Y397934D01*
X746388Y397882D01*
X746336Y397833D01*
X746282Y397787D01*
X746225Y397744D01*
X746166Y397705D01*
X746104Y397668D01*
X746041Y397636D01*
X745976Y397607D01*
X745909Y397581D01*
X745842Y397560D01*
X745773Y397542D01*
X745703Y397528D01*
X745632Y397518D01*
X745561Y397512D01*
X745490Y397510D01*
X745419Y397512D01*
X745348Y397518D01*
X745277Y397528D01*
X745207Y397542D01*
X745138Y397560D01*
X745071Y397581D01*
X745004Y397607D01*
X744939Y397636D01*
X744876Y397668D01*
X744814Y397705D01*
X744755Y397744D01*
X744698Y397787D01*
X744644Y397833D01*
X744592Y397882D01*
X744543Y397934D01*
X744497Y397988D01*
X744454Y398045D01*
X744415Y398104D01*
X744378Y398166D01*
X744346Y398229D01*
X744317Y398294D01*
X744291Y398361D01*
X744270Y398428D01*
X744252Y398497D01*
X744238Y398567D01*
X744228Y398638D01*
X744222Y398709D01*
X744220Y398780D01*
D15*
X737235Y483235D02*
X737235Y494665D01*
X740410Y494665D01*
X740521Y494663D01*
X740631Y494657D01*
X740742Y494648D01*
X740852Y494634D01*
X740961Y494617D01*
X741070Y494596D01*
X741178Y494571D01*
X741285Y494542D01*
X741391Y494510D01*
X741496Y494474D01*
X741599Y494434D01*
X741701Y494391D01*
X741802Y494344D01*
X741901Y494293D01*
X741998Y494240D01*
X742092Y494183D01*
X742185Y494122D01*
X742276Y494059D01*
X742365Y493992D01*
X742451Y493922D01*
X742534Y493849D01*
X742616Y493774D01*
X742694Y493696D01*
X742769Y493614D01*
X742842Y493531D01*
X742912Y493445D01*
X742979Y493356D01*
X743042Y493265D01*
X743103Y493172D01*
X743160Y493078D01*
X743213Y492981D01*
X743264Y492882D01*
X743311Y492781D01*
X743354Y492679D01*
X743394Y492576D01*
X743430Y492471D01*
X743462Y492365D01*
X743491Y492258D01*
X743516Y492150D01*
X743537Y492041D01*
X743554Y491932D01*
X743568Y491822D01*
X743577Y491711D01*
X743583Y491601D01*
X743585Y491490D01*
X743585Y486410D01*
X743583Y486299D01*
X743577Y486189D01*
X743568Y486078D01*
X743554Y485968D01*
X743537Y485859D01*
X743516Y485750D01*
X743491Y485642D01*
X743462Y485535D01*
X743430Y485429D01*
X743394Y485324D01*
X743354Y485221D01*
X743311Y485119D01*
X743264Y485018D01*
X743213Y484919D01*
X743160Y484822D01*
X743103Y484728D01*
X743042Y484635D01*
X742979Y484544D01*
X742912Y484455D01*
X742842Y484369D01*
X742769Y484286D01*
X742694Y484204D01*
X742616Y484126D01*
X742534Y484051D01*
X742451Y483978D01*
X742365Y483908D01*
X742276Y483841D01*
X742185Y483778D01*
X742092Y483717D01*
X741998Y483660D01*
X741901Y483607D01*
X741802Y483556D01*
X741701Y483509D01*
X741599Y483466D01*
X741496Y483426D01*
X741391Y483390D01*
X741285Y483358D01*
X741178Y483329D01*
X741070Y483304D01*
X740961Y483283D01*
X740852Y483266D01*
X740742Y483252D01*
X740631Y483243D01*
X740521Y483237D01*
X740410Y483235D01*
X737235Y483235D01*
X749935Y483235D02*
X749935Y494665D01*
X748665Y483235D02*
X751205Y483235D01*
X751205Y494665D02*
X748665Y494665D01*
X759333Y483235D02*
X759433Y483237D01*
X759532Y483243D01*
X759632Y483253D01*
X759730Y483266D01*
X759829Y483284D01*
X759926Y483305D01*
X760022Y483330D01*
X760118Y483359D01*
X760212Y483392D01*
X760305Y483428D01*
X760396Y483468D01*
X760486Y483512D01*
X760574Y483559D01*
X760660Y483609D01*
X760744Y483663D01*
X760826Y483720D01*
X760905Y483780D01*
X760983Y483844D01*
X761057Y483910D01*
X761129Y483979D01*
X761198Y484051D01*
X761264Y484125D01*
X761328Y484203D01*
X761388Y484282D01*
X761445Y484364D01*
X761499Y484448D01*
X761549Y484534D01*
X761596Y484622D01*
X761640Y484712D01*
X761680Y484803D01*
X761716Y484896D01*
X761749Y484990D01*
X761778Y485086D01*
X761803Y485182D01*
X761824Y485279D01*
X761842Y485378D01*
X761855Y485476D01*
X761865Y485576D01*
X761871Y485675D01*
X761873Y485775D01*
X759333Y483235D02*
X759192Y483237D01*
X759051Y483242D01*
X758910Y483252D01*
X758769Y483265D01*
X758629Y483281D01*
X758489Y483302D01*
X758350Y483326D01*
X758211Y483354D01*
X758074Y483385D01*
X757937Y483420D01*
X757801Y483458D01*
X757666Y483500D01*
X757533Y483546D01*
X757400Y483595D01*
X757269Y483648D01*
X757140Y483704D01*
X757011Y483763D01*
X756885Y483826D01*
X756760Y483892D01*
X756637Y483961D01*
X756516Y484034D01*
X756397Y484110D01*
X756279Y484189D01*
X756164Y484270D01*
X756052Y484355D01*
X755941Y484443D01*
X755833Y484534D01*
X755727Y484627D01*
X755624Y484724D01*
X755523Y484823D01*
X755841Y492125D02*
X755843Y492225D01*
X755849Y492324D01*
X755859Y492424D01*
X755872Y492522D01*
X755890Y492621D01*
X755911Y492718D01*
X755936Y492814D01*
X755965Y492910D01*
X755998Y493004D01*
X756034Y493097D01*
X756074Y493188D01*
X756118Y493278D01*
X756165Y493366D01*
X756215Y493452D01*
X756269Y493536D01*
X756326Y493618D01*
X756386Y493697D01*
X756450Y493775D01*
X756516Y493849D01*
X756585Y493921D01*
X756657Y493990D01*
X756731Y494056D01*
X756809Y494120D01*
X756888Y494180D01*
X756970Y494237D01*
X757054Y494291D01*
X757140Y494341D01*
X757228Y494388D01*
X757318Y494432D01*
X757409Y494472D01*
X757502Y494508D01*
X757596Y494541D01*
X757692Y494570D01*
X757788Y494595D01*
X757885Y494616D01*
X757984Y494634D01*
X758082Y494647D01*
X758182Y494657D01*
X758281Y494663D01*
X758381Y494665D01*
X758381Y494666D02*
X758514Y494664D01*
X758647Y494659D01*
X758780Y494649D01*
X758913Y494636D01*
X759045Y494619D01*
X759177Y494599D01*
X759308Y494575D01*
X759438Y494547D01*
X759568Y494516D01*
X759696Y494481D01*
X759824Y494442D01*
X759950Y494400D01*
X760075Y494354D01*
X760199Y494305D01*
X760322Y494253D01*
X760443Y494197D01*
X760562Y494137D01*
X760680Y494075D01*
X760795Y494009D01*
X760909Y493940D01*
X761021Y493867D01*
X761131Y493792D01*
X761239Y493713D01*
X757110Y489902D02*
X757026Y489954D01*
X756943Y490009D01*
X756863Y490068D01*
X756785Y490129D01*
X756710Y490193D01*
X756637Y490261D01*
X756566Y490331D01*
X756499Y490403D01*
X756434Y490478D01*
X756372Y490556D01*
X756313Y490636D01*
X756257Y490718D01*
X756205Y490802D01*
X756156Y490888D01*
X756110Y490976D01*
X756067Y491066D01*
X756028Y491157D01*
X755993Y491250D01*
X755961Y491344D01*
X755933Y491439D01*
X755908Y491535D01*
X755888Y491632D01*
X755870Y491730D01*
X755857Y491828D01*
X755848Y491927D01*
X755842Y492026D01*
X755840Y492125D01*
X760603Y487998D02*
X760687Y487946D01*
X760770Y487891D01*
X760850Y487832D01*
X760928Y487771D01*
X761003Y487707D01*
X761076Y487639D01*
X761147Y487569D01*
X761214Y487497D01*
X761279Y487422D01*
X761341Y487344D01*
X761400Y487264D01*
X761456Y487182D01*
X761508Y487098D01*
X761557Y487012D01*
X761603Y486924D01*
X761646Y486834D01*
X761685Y486743D01*
X761720Y486650D01*
X761752Y486556D01*
X761780Y486461D01*
X761805Y486365D01*
X761825Y486268D01*
X761843Y486170D01*
X761856Y486072D01*
X761865Y485973D01*
X761871Y485874D01*
X761873Y485775D01*
X760603Y487998D02*
X757111Y489903D01*
X766572Y483235D02*
X769747Y483235D01*
X769858Y483237D01*
X769968Y483243D01*
X770079Y483252D01*
X770189Y483266D01*
X770298Y483283D01*
X770407Y483304D01*
X770515Y483329D01*
X770622Y483358D01*
X770728Y483390D01*
X770833Y483426D01*
X770936Y483466D01*
X771038Y483509D01*
X771139Y483556D01*
X771238Y483607D01*
X771335Y483660D01*
X771429Y483717D01*
X771522Y483778D01*
X771613Y483841D01*
X771702Y483908D01*
X771788Y483978D01*
X771871Y484051D01*
X771953Y484126D01*
X772031Y484204D01*
X772106Y484286D01*
X772179Y484369D01*
X772249Y484455D01*
X772316Y484544D01*
X772379Y484635D01*
X772440Y484728D01*
X772497Y484822D01*
X772550Y484919D01*
X772601Y485018D01*
X772648Y485119D01*
X772691Y485221D01*
X772731Y485324D01*
X772767Y485429D01*
X772799Y485535D01*
X772828Y485642D01*
X772853Y485750D01*
X772874Y485859D01*
X772891Y485968D01*
X772905Y486078D01*
X772914Y486189D01*
X772920Y486299D01*
X772922Y486410D01*
X772920Y486521D01*
X772914Y486631D01*
X772905Y486742D01*
X772891Y486852D01*
X772874Y486961D01*
X772853Y487070D01*
X772828Y487178D01*
X772799Y487285D01*
X772767Y487391D01*
X772731Y487496D01*
X772691Y487599D01*
X772648Y487701D01*
X772601Y487802D01*
X772550Y487901D01*
X772497Y487997D01*
X772440Y488092D01*
X772379Y488185D01*
X772316Y488276D01*
X772249Y488365D01*
X772179Y488451D01*
X772106Y488534D01*
X772031Y488616D01*
X771953Y488694D01*
X771871Y488769D01*
X771788Y488842D01*
X771702Y488912D01*
X771613Y488979D01*
X771522Y489042D01*
X771429Y489103D01*
X771335Y489160D01*
X771238Y489213D01*
X771139Y489264D01*
X771038Y489311D01*
X770936Y489354D01*
X770833Y489394D01*
X770728Y489430D01*
X770622Y489462D01*
X770515Y489491D01*
X770407Y489516D01*
X770298Y489537D01*
X770189Y489554D01*
X770079Y489568D01*
X769968Y489577D01*
X769858Y489583D01*
X769747Y489585D01*
X770382Y494665D02*
X766572Y494665D01*
X770382Y494665D02*
X770482Y494663D01*
X770581Y494657D01*
X770681Y494647D01*
X770779Y494634D01*
X770878Y494616D01*
X770975Y494595D01*
X771071Y494570D01*
X771167Y494541D01*
X771261Y494508D01*
X771354Y494472D01*
X771445Y494432D01*
X771535Y494388D01*
X771623Y494341D01*
X771709Y494291D01*
X771793Y494237D01*
X771875Y494180D01*
X771954Y494120D01*
X772032Y494056D01*
X772106Y493990D01*
X772178Y493921D01*
X772247Y493849D01*
X772313Y493775D01*
X772377Y493697D01*
X772437Y493618D01*
X772494Y493536D01*
X772548Y493452D01*
X772598Y493366D01*
X772645Y493278D01*
X772689Y493188D01*
X772729Y493097D01*
X772765Y493004D01*
X772798Y492910D01*
X772827Y492814D01*
X772852Y492718D01*
X772873Y492621D01*
X772891Y492522D01*
X772904Y492424D01*
X772914Y492324D01*
X772920Y492225D01*
X772922Y492125D01*
X772920Y492025D01*
X772914Y491926D01*
X772904Y491826D01*
X772891Y491728D01*
X772873Y491629D01*
X772852Y491532D01*
X772827Y491436D01*
X772798Y491340D01*
X772765Y491246D01*
X772729Y491153D01*
X772689Y491062D01*
X772645Y490972D01*
X772598Y490884D01*
X772548Y490798D01*
X772494Y490714D01*
X772437Y490632D01*
X772377Y490553D01*
X772313Y490475D01*
X772247Y490401D01*
X772178Y490329D01*
X772106Y490260D01*
X772032Y490194D01*
X771954Y490130D01*
X771875Y490070D01*
X771793Y490013D01*
X771709Y489959D01*
X771623Y489909D01*
X771535Y489862D01*
X771445Y489818D01*
X771354Y489778D01*
X771261Y489742D01*
X771167Y489709D01*
X771071Y489680D01*
X770975Y489655D01*
X770878Y489634D01*
X770779Y489616D01*
X770681Y489603D01*
X770581Y489593D01*
X770482Y489587D01*
X770382Y489585D01*
X767842Y489585D01*
D14*
X800100Y257810D02*
X977900Y257810D01*
X977900Y199390D02*
X800100Y199390D01*
X977900Y199390D02*
X977900Y257810D01*
X800100Y257810D02*
X800100Y238760D01*
X800100Y218440D02*
X800100Y199390D01*
X800100Y218440D02*
X800347Y218443D01*
X800595Y218452D01*
X800842Y218467D01*
X801088Y218488D01*
X801334Y218515D01*
X801579Y218548D01*
X801824Y218587D01*
X802067Y218632D01*
X802309Y218683D01*
X802550Y218740D01*
X802789Y218802D01*
X803027Y218871D01*
X803263Y218945D01*
X803497Y219025D01*
X803729Y219110D01*
X803959Y219202D01*
X804187Y219298D01*
X804412Y219401D01*
X804635Y219508D01*
X804855Y219622D01*
X805072Y219740D01*
X805287Y219864D01*
X805498Y219993D01*
X805706Y220127D01*
X805911Y220266D01*
X806112Y220410D01*
X806310Y220558D01*
X806504Y220712D01*
X806694Y220870D01*
X806880Y221033D01*
X807062Y221200D01*
X807240Y221372D01*
X807414Y221548D01*
X807584Y221728D01*
X807749Y221913D01*
X807909Y222101D01*
X808065Y222293D01*
X808217Y222489D01*
X808363Y222688D01*
X808505Y222891D01*
X808641Y223098D01*
X808773Y223307D01*
X808899Y223520D01*
X809020Y223736D01*
X809136Y223954D01*
X809246Y224176D01*
X809351Y224400D01*
X809451Y224626D01*
X809545Y224855D01*
X809633Y225086D01*
X809716Y225320D01*
X809793Y225555D01*
X809864Y225792D01*
X809930Y226030D01*
X809989Y226270D01*
X810043Y226512D01*
X810091Y226755D01*
X810133Y226998D01*
X810169Y227243D01*
X810199Y227489D01*
X810223Y227735D01*
X810241Y227982D01*
X810253Y228229D01*
X810259Y228476D01*
X810259Y228724D01*
X810253Y228971D01*
X810241Y229218D01*
X810223Y229465D01*
X810199Y229711D01*
X810169Y229957D01*
X810133Y230202D01*
X810091Y230445D01*
X810043Y230688D01*
X809989Y230930D01*
X809930Y231170D01*
X809864Y231408D01*
X809793Y231645D01*
X809716Y231880D01*
X809633Y232114D01*
X809545Y232345D01*
X809451Y232574D01*
X809351Y232800D01*
X809246Y233024D01*
X809136Y233246D01*
X809020Y233464D01*
X808899Y233680D01*
X808773Y233893D01*
X808641Y234102D01*
X808505Y234309D01*
X808363Y234512D01*
X808217Y234711D01*
X808065Y234907D01*
X807909Y235099D01*
X807749Y235287D01*
X807584Y235472D01*
X807414Y235652D01*
X807240Y235828D01*
X807062Y236000D01*
X806880Y236167D01*
X806694Y236330D01*
X806504Y236488D01*
X806310Y236642D01*
X806112Y236790D01*
X805911Y236934D01*
X805706Y237073D01*
X805498Y237207D01*
X805287Y237336D01*
X805072Y237460D01*
X804855Y237578D01*
X804635Y237692D01*
X804412Y237799D01*
X804187Y237902D01*
X803959Y237998D01*
X803729Y238090D01*
X803497Y238175D01*
X803263Y238255D01*
X803027Y238329D01*
X802789Y238398D01*
X802550Y238460D01*
X802309Y238517D01*
X802067Y238568D01*
X801824Y238613D01*
X801579Y238652D01*
X801334Y238685D01*
X801088Y238712D01*
X800842Y238733D01*
X800595Y238748D01*
X800347Y238757D01*
X800100Y238760D01*
D15*
X1063625Y200025D02*
X1075055Y200025D01*
X1075055Y198755D02*
X1075055Y201295D01*
X1063625Y201295D02*
X1063625Y198755D01*
X1075055Y208497D02*
X1075055Y211037D01*
X1075055Y208497D02*
X1075053Y208397D01*
X1075047Y208298D01*
X1075037Y208198D01*
X1075024Y208100D01*
X1075006Y208001D01*
X1074985Y207904D01*
X1074960Y207808D01*
X1074931Y207712D01*
X1074898Y207618D01*
X1074862Y207525D01*
X1074822Y207434D01*
X1074778Y207344D01*
X1074731Y207256D01*
X1074681Y207170D01*
X1074627Y207086D01*
X1074570Y207004D01*
X1074510Y206925D01*
X1074446Y206847D01*
X1074380Y206773D01*
X1074311Y206701D01*
X1074239Y206632D01*
X1074165Y206566D01*
X1074087Y206502D01*
X1074008Y206442D01*
X1073926Y206385D01*
X1073842Y206331D01*
X1073756Y206281D01*
X1073668Y206234D01*
X1073578Y206190D01*
X1073487Y206150D01*
X1073394Y206114D01*
X1073300Y206081D01*
X1073204Y206052D01*
X1073108Y206027D01*
X1073011Y206006D01*
X1072912Y205988D01*
X1072814Y205975D01*
X1072714Y205965D01*
X1072615Y205959D01*
X1072515Y205957D01*
X1066165Y205957D01*
X1066065Y205959D01*
X1065966Y205965D01*
X1065866Y205975D01*
X1065768Y205988D01*
X1065669Y206006D01*
X1065572Y206027D01*
X1065476Y206052D01*
X1065380Y206081D01*
X1065286Y206114D01*
X1065193Y206150D01*
X1065102Y206190D01*
X1065012Y206234D01*
X1064924Y206281D01*
X1064838Y206331D01*
X1064754Y206385D01*
X1064672Y206442D01*
X1064593Y206502D01*
X1064515Y206566D01*
X1064441Y206632D01*
X1064369Y206701D01*
X1064300Y206773D01*
X1064234Y206847D01*
X1064170Y206925D01*
X1064110Y207004D01*
X1064053Y207086D01*
X1063999Y207170D01*
X1063949Y207256D01*
X1063902Y207344D01*
X1063858Y207434D01*
X1063818Y207525D01*
X1063782Y207618D01*
X1063749Y207712D01*
X1063720Y207808D01*
X1063695Y207904D01*
X1063674Y208001D01*
X1063656Y208100D01*
X1063643Y208198D01*
X1063633Y208298D01*
X1063627Y208397D01*
X1063625Y208497D01*
X1063625Y211037D01*
X1066165Y215519D02*
X1063625Y218694D01*
X1075055Y218694D01*
X1075055Y215519D02*
X1075055Y221869D01*
D14*
X990600Y105410D02*
X812800Y105410D01*
X812800Y46990D02*
X990600Y46990D01*
X990600Y105410D01*
X812800Y105410D02*
X812800Y86360D01*
X812800Y66040D02*
X812800Y46990D01*
X812800Y66040D02*
X813047Y66043D01*
X813295Y66052D01*
X813542Y66067D01*
X813788Y66088D01*
X814034Y66115D01*
X814279Y66148D01*
X814524Y66187D01*
X814767Y66232D01*
X815009Y66283D01*
X815250Y66340D01*
X815489Y66402D01*
X815727Y66471D01*
X815963Y66545D01*
X816197Y66625D01*
X816429Y66710D01*
X816659Y66802D01*
X816887Y66898D01*
X817112Y67001D01*
X817335Y67108D01*
X817555Y67222D01*
X817772Y67340D01*
X817987Y67464D01*
X818198Y67593D01*
X818406Y67727D01*
X818611Y67866D01*
X818812Y68010D01*
X819010Y68158D01*
X819204Y68312D01*
X819394Y68470D01*
X819580Y68633D01*
X819762Y68800D01*
X819940Y68972D01*
X820114Y69148D01*
X820284Y69328D01*
X820449Y69513D01*
X820609Y69701D01*
X820765Y69893D01*
X820917Y70089D01*
X821063Y70288D01*
X821205Y70491D01*
X821341Y70698D01*
X821473Y70907D01*
X821599Y71120D01*
X821720Y71336D01*
X821836Y71554D01*
X821946Y71776D01*
X822051Y72000D01*
X822151Y72226D01*
X822245Y72455D01*
X822333Y72686D01*
X822416Y72920D01*
X822493Y73155D01*
X822564Y73392D01*
X822630Y73630D01*
X822689Y73870D01*
X822743Y74112D01*
X822791Y74355D01*
X822833Y74598D01*
X822869Y74843D01*
X822899Y75089D01*
X822923Y75335D01*
X822941Y75582D01*
X822953Y75829D01*
X822959Y76076D01*
X822959Y76324D01*
X822953Y76571D01*
X822941Y76818D01*
X822923Y77065D01*
X822899Y77311D01*
X822869Y77557D01*
X822833Y77802D01*
X822791Y78045D01*
X822743Y78288D01*
X822689Y78530D01*
X822630Y78770D01*
X822564Y79008D01*
X822493Y79245D01*
X822416Y79480D01*
X822333Y79714D01*
X822245Y79945D01*
X822151Y80174D01*
X822051Y80400D01*
X821946Y80624D01*
X821836Y80846D01*
X821720Y81064D01*
X821599Y81280D01*
X821473Y81493D01*
X821341Y81702D01*
X821205Y81909D01*
X821063Y82112D01*
X820917Y82311D01*
X820765Y82507D01*
X820609Y82699D01*
X820449Y82887D01*
X820284Y83072D01*
X820114Y83252D01*
X819940Y83428D01*
X819762Y83600D01*
X819580Y83767D01*
X819394Y83930D01*
X819204Y84088D01*
X819010Y84242D01*
X818812Y84390D01*
X818611Y84534D01*
X818406Y84673D01*
X818198Y84807D01*
X817987Y84936D01*
X817772Y85060D01*
X817555Y85178D01*
X817335Y85292D01*
X817112Y85399D01*
X816887Y85502D01*
X816659Y85598D01*
X816429Y85690D01*
X816197Y85775D01*
X815963Y85855D01*
X815727Y85929D01*
X815489Y85998D01*
X815250Y86060D01*
X815009Y86117D01*
X814767Y86168D01*
X814524Y86213D01*
X814279Y86252D01*
X814034Y86285D01*
X813788Y86312D01*
X813542Y86333D01*
X813295Y86348D01*
X813047Y86357D01*
X812800Y86360D01*
D15*
X808355Y47625D02*
X796925Y47625D01*
X808355Y46355D02*
X808355Y48895D01*
X796925Y48895D02*
X796925Y46355D01*
X808355Y56097D02*
X808355Y58637D01*
X808355Y56097D02*
X808353Y55997D01*
X808347Y55898D01*
X808337Y55798D01*
X808324Y55700D01*
X808306Y55601D01*
X808285Y55504D01*
X808260Y55408D01*
X808231Y55312D01*
X808198Y55218D01*
X808162Y55125D01*
X808122Y55034D01*
X808078Y54944D01*
X808031Y54856D01*
X807981Y54770D01*
X807927Y54686D01*
X807870Y54604D01*
X807810Y54525D01*
X807746Y54447D01*
X807680Y54373D01*
X807611Y54301D01*
X807539Y54232D01*
X807465Y54166D01*
X807387Y54102D01*
X807308Y54042D01*
X807226Y53985D01*
X807142Y53931D01*
X807056Y53881D01*
X806968Y53834D01*
X806878Y53790D01*
X806787Y53750D01*
X806694Y53714D01*
X806600Y53681D01*
X806504Y53652D01*
X806408Y53627D01*
X806311Y53606D01*
X806212Y53588D01*
X806114Y53575D01*
X806014Y53565D01*
X805915Y53559D01*
X805815Y53557D01*
X799465Y53557D01*
X799365Y53559D01*
X799266Y53565D01*
X799166Y53575D01*
X799068Y53588D01*
X798969Y53606D01*
X798872Y53627D01*
X798776Y53652D01*
X798680Y53681D01*
X798586Y53714D01*
X798493Y53750D01*
X798402Y53790D01*
X798312Y53834D01*
X798224Y53881D01*
X798138Y53931D01*
X798054Y53985D01*
X797972Y54042D01*
X797893Y54102D01*
X797815Y54166D01*
X797741Y54232D01*
X797669Y54301D01*
X797600Y54373D01*
X797534Y54447D01*
X797470Y54525D01*
X797410Y54604D01*
X797353Y54686D01*
X797299Y54770D01*
X797249Y54856D01*
X797202Y54944D01*
X797158Y55034D01*
X797118Y55125D01*
X797082Y55218D01*
X797049Y55312D01*
X797020Y55408D01*
X796995Y55504D01*
X796974Y55601D01*
X796956Y55700D01*
X796943Y55798D01*
X796933Y55898D01*
X796927Y55997D01*
X796925Y56097D01*
X796925Y58637D01*
X796925Y66611D02*
X796927Y66715D01*
X796933Y66820D01*
X796942Y66924D01*
X796955Y67027D01*
X796973Y67130D01*
X796993Y67232D01*
X797018Y67334D01*
X797046Y67434D01*
X797078Y67534D01*
X797114Y67632D01*
X797153Y67729D01*
X797195Y67824D01*
X797241Y67918D01*
X797291Y68010D01*
X797343Y68100D01*
X797399Y68188D01*
X797459Y68274D01*
X797521Y68358D01*
X797586Y68439D01*
X797654Y68518D01*
X797726Y68595D01*
X797799Y68668D01*
X797876Y68740D01*
X797955Y68808D01*
X798036Y68873D01*
X798120Y68935D01*
X798206Y68995D01*
X798294Y69051D01*
X798384Y69103D01*
X798476Y69153D01*
X798570Y69199D01*
X798665Y69241D01*
X798762Y69280D01*
X798860Y69316D01*
X798960Y69348D01*
X799060Y69376D01*
X799162Y69401D01*
X799264Y69421D01*
X799367Y69439D01*
X799470Y69452D01*
X799574Y69461D01*
X799679Y69467D01*
X799783Y69469D01*
X796925Y66611D02*
X796927Y66493D01*
X796933Y66374D01*
X796942Y66256D01*
X796955Y66139D01*
X796973Y66022D01*
X796993Y65905D01*
X797018Y65789D01*
X797046Y65674D01*
X797079Y65561D01*
X797114Y65448D01*
X797154Y65336D01*
X797196Y65226D01*
X797243Y65117D01*
X797293Y65009D01*
X797346Y64904D01*
X797403Y64800D01*
X797463Y64698D01*
X797526Y64598D01*
X797593Y64500D01*
X797662Y64404D01*
X797735Y64311D01*
X797811Y64220D01*
X797889Y64131D01*
X797971Y64045D01*
X798055Y63962D01*
X798141Y63881D01*
X798231Y63804D01*
X798322Y63729D01*
X798416Y63657D01*
X798513Y63588D01*
X798611Y63523D01*
X798712Y63460D01*
X798815Y63401D01*
X798919Y63345D01*
X799025Y63293D01*
X799133Y63244D01*
X799242Y63199D01*
X799353Y63157D01*
X799465Y63119D01*
X802005Y68517D02*
X801930Y68593D01*
X801851Y68668D01*
X801770Y68739D01*
X801686Y68808D01*
X801600Y68873D01*
X801512Y68935D01*
X801422Y68995D01*
X801330Y69051D01*
X801235Y69104D01*
X801139Y69153D01*
X801041Y69199D01*
X800942Y69242D01*
X800841Y69281D01*
X800739Y69316D01*
X800636Y69348D01*
X800532Y69376D01*
X800427Y69401D01*
X800320Y69422D01*
X800214Y69439D01*
X800107Y69452D01*
X799999Y69461D01*
X799891Y69467D01*
X799783Y69469D01*
X802005Y68516D02*
X808355Y63119D01*
X808355Y69469D01*
D16*
X560600Y597900D02*
X530600Y597900D01*
X560600Y597900D02*
X658600Y597900D01*
X688600Y597900D01*
X688600Y676900D02*
X530600Y676900D01*
X564600Y508900D02*
X654600Y508900D01*
X560600Y577900D02*
X560600Y597900D01*
X560600Y559900D02*
X560600Y512900D01*
X658600Y577900D02*
X658600Y597900D01*
X658600Y559900D02*
X658600Y512900D01*
X530600Y597900D02*
X530600Y676900D01*
X688600Y676900D02*
X688600Y597900D01*
X638600Y147900D02*
X580600Y147900D01*
X580600Y507900D01*
X638600Y507900D02*
X638600Y147900D01*
X564600Y508900D02*
X560600Y512900D01*
X654600Y508900D02*
X658600Y512900D01*
X560600Y577900D02*
X552600Y577900D01*
X560600Y577900D02*
X658600Y577900D01*
X666600Y577900D01*
X673600Y576900D01*
X676600Y575900D01*
X676600Y561900D01*
X673600Y560900D01*
X666600Y559900D01*
X658600Y559900D01*
X560600Y559900D01*
X552600Y559900D01*
X545600Y560900D01*
X542600Y561900D01*
X542600Y575900D01*
X545600Y576900D01*
X552600Y577900D01*
X639600Y574900D02*
X643600Y572900D01*
X639600Y574900D02*
X631600Y576900D01*
X623600Y577900D01*
X579600Y574900D02*
X575600Y572900D01*
X579600Y574900D02*
X587600Y576900D01*
X595600Y577900D01*
X579600Y562900D02*
X575600Y564900D01*
X579600Y562900D02*
X587600Y560900D01*
X595600Y559900D01*
X639600Y562900D02*
X643600Y564900D01*
X639600Y562900D02*
X631600Y560900D01*
X623600Y559900D01*
X575600Y564900D02*
X571600Y562900D01*
X563600Y560900D01*
X555600Y559900D01*
X571600Y574900D02*
X575600Y572900D01*
X571600Y574900D02*
X563600Y576900D01*
X555600Y577900D01*
X643600Y572900D02*
X647600Y574900D01*
X655600Y576900D01*
X663600Y577900D01*
X647600Y562900D02*
X643600Y564900D01*
X647600Y562900D02*
X655600Y560900D01*
X663600Y559900D01*
X575600Y564900D02*
X575600Y572900D01*
X643600Y572900D02*
X643600Y564900D01*
X709600Y594900D02*
X509600Y594900D01*
X509600Y652900D01*
X509600Y670900D02*
X509600Y751900D01*
X709600Y751900D02*
X709600Y670900D01*
X709600Y652900D02*
X709600Y594900D01*
D13*
X539108Y718708D02*
X539108Y730392D01*
X542354Y730392D01*
X542467Y730390D01*
X542580Y730384D01*
X542693Y730374D01*
X542806Y730360D01*
X542918Y730343D01*
X543029Y730321D01*
X543139Y730296D01*
X543249Y730266D01*
X543357Y730233D01*
X543464Y730196D01*
X543570Y730156D01*
X543674Y730111D01*
X543777Y730063D01*
X543878Y730012D01*
X543977Y729957D01*
X544074Y729899D01*
X544169Y729837D01*
X544262Y729772D01*
X544352Y729704D01*
X544440Y729633D01*
X544526Y729558D01*
X544609Y729481D01*
X544689Y729401D01*
X544766Y729318D01*
X544841Y729232D01*
X544912Y729144D01*
X544980Y729054D01*
X545045Y728961D01*
X545107Y728866D01*
X545165Y728769D01*
X545220Y728670D01*
X545271Y728569D01*
X545319Y728466D01*
X545364Y728362D01*
X545404Y728256D01*
X545441Y728149D01*
X545474Y728041D01*
X545504Y727931D01*
X545529Y727821D01*
X545551Y727710D01*
X545568Y727598D01*
X545582Y727485D01*
X545592Y727372D01*
X545598Y727259D01*
X545600Y727146D01*
X545598Y727033D01*
X545592Y726920D01*
X545582Y726807D01*
X545568Y726694D01*
X545551Y726582D01*
X545529Y726471D01*
X545504Y726361D01*
X545474Y726251D01*
X545441Y726143D01*
X545404Y726036D01*
X545364Y725930D01*
X545319Y725826D01*
X545271Y725723D01*
X545220Y725622D01*
X545165Y725523D01*
X545107Y725426D01*
X545045Y725331D01*
X544980Y725238D01*
X544912Y725148D01*
X544841Y725060D01*
X544766Y724974D01*
X544689Y724891D01*
X544609Y724811D01*
X544526Y724734D01*
X544440Y724659D01*
X544352Y724588D01*
X544262Y724520D01*
X544169Y724455D01*
X544074Y724393D01*
X543977Y724335D01*
X543878Y724280D01*
X543777Y724229D01*
X543674Y724181D01*
X543570Y724136D01*
X543464Y724096D01*
X543357Y724059D01*
X543249Y724026D01*
X543139Y723996D01*
X543029Y723971D01*
X542918Y723949D01*
X542806Y723932D01*
X542693Y723918D01*
X542580Y723908D01*
X542467Y723902D01*
X542354Y723900D01*
X542354Y723901D02*
X539108Y723901D01*
X543003Y723901D02*
X545599Y718708D01*
X550464Y721304D02*
X553061Y730392D01*
X550464Y721304D02*
X556955Y721304D01*
X555008Y723901D02*
X555008Y718708D01*
D16*
X281200Y623300D02*
X251200Y623300D01*
X281200Y623300D02*
X379200Y623300D01*
X409200Y623300D01*
X409200Y702300D02*
X251200Y702300D01*
X285200Y534300D02*
X375200Y534300D01*
X281200Y603300D02*
X281200Y623300D01*
X281200Y585300D02*
X281200Y538300D01*
X379200Y603300D02*
X379200Y623300D01*
X379200Y585300D02*
X379200Y538300D01*
X251200Y623300D02*
X251200Y702300D01*
X409200Y702300D02*
X409200Y623300D01*
X359200Y173300D02*
X301200Y173300D01*
X301200Y533300D01*
X359200Y533300D02*
X359200Y173300D01*
X285200Y534300D02*
X281200Y538300D01*
X375200Y534300D02*
X379200Y538300D01*
X281200Y603300D02*
X273200Y603300D01*
X281200Y603300D02*
X379200Y603300D01*
X387200Y603300D01*
X394200Y602300D01*
X397200Y601300D01*
X397200Y587300D01*
X394200Y586300D01*
X387200Y585300D01*
X379200Y585300D01*
X281200Y585300D01*
X273200Y585300D01*
X266200Y586300D01*
X263200Y587300D01*
X263200Y601300D01*
X266200Y602300D01*
X273200Y603300D01*
X360200Y600300D02*
X364200Y598300D01*
X360200Y600300D02*
X352200Y602300D01*
X344200Y603300D01*
X300200Y600300D02*
X296200Y598300D01*
X300200Y600300D02*
X308200Y602300D01*
X316200Y603300D01*
X300200Y588300D02*
X296200Y590300D01*
X300200Y588300D02*
X308200Y586300D01*
X316200Y585300D01*
X360200Y588300D02*
X364200Y590300D01*
X360200Y588300D02*
X352200Y586300D01*
X344200Y585300D01*
X296200Y590300D02*
X292200Y588300D01*
X284200Y586300D01*
X276200Y585300D01*
X292200Y600300D02*
X296200Y598300D01*
X292200Y600300D02*
X284200Y602300D01*
X276200Y603300D01*
X364200Y598300D02*
X368200Y600300D01*
X376200Y602300D01*
X384200Y603300D01*
X368200Y588300D02*
X364200Y590300D01*
X368200Y588300D02*
X376200Y586300D01*
X384200Y585300D01*
X296200Y590300D02*
X296200Y598300D01*
X364200Y598300D02*
X364200Y590300D01*
X430200Y620300D02*
X230200Y620300D01*
X230200Y678300D01*
X230200Y696300D02*
X230200Y777300D01*
X430200Y777300D02*
X430200Y696300D01*
X430200Y678300D02*
X430200Y620300D01*
D13*
X259708Y744108D02*
X259708Y755792D01*
X262954Y755792D01*
X263067Y755790D01*
X263180Y755784D01*
X263293Y755774D01*
X263406Y755760D01*
X263518Y755743D01*
X263629Y755721D01*
X263739Y755696D01*
X263849Y755666D01*
X263957Y755633D01*
X264064Y755596D01*
X264170Y755556D01*
X264274Y755511D01*
X264377Y755463D01*
X264478Y755412D01*
X264577Y755357D01*
X264674Y755299D01*
X264769Y755237D01*
X264862Y755172D01*
X264952Y755104D01*
X265040Y755033D01*
X265126Y754958D01*
X265209Y754881D01*
X265289Y754801D01*
X265366Y754718D01*
X265441Y754632D01*
X265512Y754544D01*
X265580Y754454D01*
X265645Y754361D01*
X265707Y754266D01*
X265765Y754169D01*
X265820Y754070D01*
X265871Y753969D01*
X265919Y753866D01*
X265964Y753762D01*
X266004Y753656D01*
X266041Y753549D01*
X266074Y753441D01*
X266104Y753331D01*
X266129Y753221D01*
X266151Y753110D01*
X266168Y752998D01*
X266182Y752885D01*
X266192Y752772D01*
X266198Y752659D01*
X266200Y752546D01*
X266198Y752433D01*
X266192Y752320D01*
X266182Y752207D01*
X266168Y752094D01*
X266151Y751982D01*
X266129Y751871D01*
X266104Y751761D01*
X266074Y751651D01*
X266041Y751543D01*
X266004Y751436D01*
X265964Y751330D01*
X265919Y751226D01*
X265871Y751123D01*
X265820Y751022D01*
X265765Y750923D01*
X265707Y750826D01*
X265645Y750731D01*
X265580Y750638D01*
X265512Y750548D01*
X265441Y750460D01*
X265366Y750374D01*
X265289Y750291D01*
X265209Y750211D01*
X265126Y750134D01*
X265040Y750059D01*
X264952Y749988D01*
X264862Y749920D01*
X264769Y749855D01*
X264674Y749793D01*
X264577Y749735D01*
X264478Y749680D01*
X264377Y749629D01*
X264274Y749581D01*
X264170Y749536D01*
X264064Y749496D01*
X263957Y749459D01*
X263849Y749426D01*
X263739Y749396D01*
X263629Y749371D01*
X263518Y749349D01*
X263406Y749332D01*
X263293Y749318D01*
X263180Y749308D01*
X263067Y749302D01*
X262954Y749300D01*
X262954Y749301D02*
X259708Y749301D01*
X263603Y749301D02*
X266199Y744108D01*
X271064Y744108D02*
X274959Y744108D01*
X275058Y744110D01*
X275158Y744116D01*
X275257Y744125D01*
X275355Y744138D01*
X275453Y744155D01*
X275551Y744176D01*
X275647Y744201D01*
X275742Y744229D01*
X275836Y744261D01*
X275929Y744296D01*
X276021Y744335D01*
X276111Y744378D01*
X276199Y744423D01*
X276286Y744473D01*
X276370Y744525D01*
X276453Y744581D01*
X276533Y744639D01*
X276611Y744701D01*
X276686Y744766D01*
X276759Y744834D01*
X276829Y744904D01*
X276897Y744977D01*
X276962Y745052D01*
X277024Y745130D01*
X277082Y745210D01*
X277138Y745293D01*
X277190Y745377D01*
X277240Y745464D01*
X277285Y745552D01*
X277328Y745642D01*
X277367Y745734D01*
X277402Y745827D01*
X277434Y745921D01*
X277462Y746016D01*
X277487Y746112D01*
X277508Y746210D01*
X277525Y746308D01*
X277538Y746406D01*
X277547Y746505D01*
X277553Y746605D01*
X277555Y746704D01*
X277555Y748003D01*
X277553Y748102D01*
X277547Y748202D01*
X277538Y748301D01*
X277525Y748399D01*
X277508Y748497D01*
X277487Y748595D01*
X277462Y748691D01*
X277434Y748786D01*
X277402Y748880D01*
X277367Y748973D01*
X277328Y749065D01*
X277285Y749155D01*
X277240Y749243D01*
X277190Y749330D01*
X277138Y749414D01*
X277082Y749497D01*
X277024Y749577D01*
X276962Y749655D01*
X276897Y749730D01*
X276829Y749803D01*
X276759Y749873D01*
X276686Y749941D01*
X276611Y750006D01*
X276533Y750068D01*
X276453Y750126D01*
X276370Y750182D01*
X276286Y750234D01*
X276199Y750284D01*
X276111Y750329D01*
X276021Y750372D01*
X275929Y750411D01*
X275836Y750446D01*
X275742Y750478D01*
X275647Y750506D01*
X275551Y750531D01*
X275453Y750552D01*
X275355Y750569D01*
X275257Y750582D01*
X275158Y750591D01*
X275058Y750597D01*
X274959Y750599D01*
X271064Y750599D01*
X271064Y755792D01*
X277555Y755792D01*
D10*
X1348100Y287200D02*
X1351100Y290200D01*
X1392100Y290200D02*
X1395100Y287200D01*
X1395100Y246200D02*
X1392100Y243200D01*
X1351100Y243200D02*
X1348100Y246200D01*
X1354600Y282200D02*
X1354602Y282277D01*
X1354608Y282354D01*
X1354618Y282431D01*
X1354632Y282507D01*
X1354649Y282582D01*
X1354671Y282656D01*
X1354696Y282729D01*
X1354726Y282801D01*
X1354758Y282871D01*
X1354795Y282939D01*
X1354834Y283005D01*
X1354877Y283069D01*
X1354924Y283131D01*
X1354973Y283190D01*
X1355026Y283247D01*
X1355081Y283301D01*
X1355139Y283352D01*
X1355200Y283400D01*
X1355263Y283445D01*
X1355328Y283486D01*
X1355395Y283524D01*
X1355464Y283559D01*
X1355535Y283589D01*
X1355607Y283617D01*
X1355681Y283640D01*
X1355755Y283660D01*
X1355831Y283676D01*
X1355907Y283688D01*
X1355984Y283696D01*
X1356061Y283700D01*
X1356139Y283700D01*
X1356216Y283696D01*
X1356293Y283688D01*
X1356369Y283676D01*
X1356445Y283660D01*
X1356519Y283640D01*
X1356593Y283617D01*
X1356665Y283589D01*
X1356736Y283559D01*
X1356805Y283524D01*
X1356872Y283486D01*
X1356937Y283445D01*
X1357000Y283400D01*
X1357061Y283352D01*
X1357119Y283301D01*
X1357174Y283247D01*
X1357227Y283190D01*
X1357276Y283131D01*
X1357323Y283069D01*
X1357366Y283005D01*
X1357405Y282939D01*
X1357442Y282871D01*
X1357474Y282801D01*
X1357504Y282729D01*
X1357529Y282656D01*
X1357551Y282582D01*
X1357568Y282507D01*
X1357582Y282431D01*
X1357592Y282354D01*
X1357598Y282277D01*
X1357600Y282200D01*
X1357598Y282123D01*
X1357592Y282046D01*
X1357582Y281969D01*
X1357568Y281893D01*
X1357551Y281818D01*
X1357529Y281744D01*
X1357504Y281671D01*
X1357474Y281599D01*
X1357442Y281529D01*
X1357405Y281461D01*
X1357366Y281395D01*
X1357323Y281331D01*
X1357276Y281269D01*
X1357227Y281210D01*
X1357174Y281153D01*
X1357119Y281099D01*
X1357061Y281048D01*
X1357000Y281000D01*
X1356937Y280955D01*
X1356872Y280914D01*
X1356805Y280876D01*
X1356736Y280841D01*
X1356665Y280811D01*
X1356593Y280783D01*
X1356519Y280760D01*
X1356445Y280740D01*
X1356369Y280724D01*
X1356293Y280712D01*
X1356216Y280704D01*
X1356139Y280700D01*
X1356061Y280700D01*
X1355984Y280704D01*
X1355907Y280712D01*
X1355831Y280724D01*
X1355755Y280740D01*
X1355681Y280760D01*
X1355607Y280783D01*
X1355535Y280811D01*
X1355464Y280841D01*
X1355395Y280876D01*
X1355328Y280914D01*
X1355263Y280955D01*
X1355200Y281000D01*
X1355139Y281048D01*
X1355081Y281099D01*
X1355026Y281153D01*
X1354973Y281210D01*
X1354924Y281269D01*
X1354877Y281331D01*
X1354834Y281395D01*
X1354795Y281461D01*
X1354758Y281529D01*
X1354726Y281599D01*
X1354696Y281671D01*
X1354671Y281744D01*
X1354649Y281818D01*
X1354632Y281893D01*
X1354618Y281969D01*
X1354608Y282046D01*
X1354602Y282123D01*
X1354600Y282200D01*
D13*
X1348006Y298958D02*
X1348006Y310642D01*
X1346708Y298958D02*
X1349304Y298958D01*
X1349304Y310642D02*
X1346708Y310642D01*
X1356468Y298958D02*
X1359064Y298958D01*
X1356468Y298958D02*
X1356369Y298960D01*
X1356269Y298966D01*
X1356170Y298975D01*
X1356072Y298988D01*
X1355974Y299005D01*
X1355876Y299026D01*
X1355780Y299051D01*
X1355685Y299079D01*
X1355591Y299111D01*
X1355498Y299146D01*
X1355406Y299185D01*
X1355316Y299228D01*
X1355228Y299273D01*
X1355141Y299323D01*
X1355057Y299375D01*
X1354974Y299431D01*
X1354894Y299489D01*
X1354816Y299551D01*
X1354741Y299616D01*
X1354668Y299684D01*
X1354598Y299754D01*
X1354530Y299827D01*
X1354465Y299902D01*
X1354403Y299980D01*
X1354345Y300060D01*
X1354289Y300143D01*
X1354237Y300227D01*
X1354187Y300314D01*
X1354142Y300402D01*
X1354099Y300492D01*
X1354060Y300584D01*
X1354025Y300677D01*
X1353993Y300771D01*
X1353965Y300866D01*
X1353940Y300962D01*
X1353919Y301060D01*
X1353902Y301158D01*
X1353889Y301256D01*
X1353880Y301355D01*
X1353874Y301455D01*
X1353872Y301554D01*
X1353871Y301554D02*
X1353871Y308046D01*
X1353872Y308046D02*
X1353874Y308145D01*
X1353880Y308245D01*
X1353889Y308344D01*
X1353902Y308442D01*
X1353919Y308540D01*
X1353940Y308638D01*
X1353965Y308734D01*
X1353993Y308829D01*
X1354025Y308923D01*
X1354060Y309016D01*
X1354099Y309108D01*
X1354142Y309198D01*
X1354187Y309286D01*
X1354237Y309373D01*
X1354289Y309457D01*
X1354345Y309540D01*
X1354403Y309620D01*
X1354465Y309698D01*
X1354530Y309773D01*
X1354598Y309846D01*
X1354668Y309916D01*
X1354741Y309984D01*
X1354816Y310049D01*
X1354894Y310111D01*
X1354974Y310169D01*
X1355057Y310225D01*
X1355141Y310277D01*
X1355228Y310327D01*
X1355316Y310372D01*
X1355406Y310415D01*
X1355498Y310454D01*
X1355590Y310489D01*
X1355685Y310521D01*
X1355780Y310549D01*
X1355876Y310574D01*
X1355974Y310595D01*
X1356072Y310612D01*
X1356170Y310625D01*
X1356269Y310634D01*
X1356369Y310640D01*
X1356468Y310642D01*
X1359064Y310642D01*
X1363430Y298958D02*
X1366675Y298958D01*
X1366788Y298960D01*
X1366901Y298966D01*
X1367014Y298976D01*
X1367127Y298990D01*
X1367239Y299007D01*
X1367350Y299029D01*
X1367460Y299054D01*
X1367570Y299084D01*
X1367678Y299117D01*
X1367785Y299154D01*
X1367891Y299194D01*
X1367995Y299239D01*
X1368098Y299287D01*
X1368199Y299338D01*
X1368298Y299393D01*
X1368395Y299451D01*
X1368490Y299513D01*
X1368583Y299578D01*
X1368673Y299646D01*
X1368761Y299717D01*
X1368847Y299792D01*
X1368930Y299869D01*
X1369010Y299949D01*
X1369087Y300032D01*
X1369162Y300118D01*
X1369233Y300206D01*
X1369301Y300296D01*
X1369366Y300389D01*
X1369428Y300484D01*
X1369486Y300581D01*
X1369541Y300680D01*
X1369592Y300781D01*
X1369640Y300884D01*
X1369685Y300988D01*
X1369725Y301094D01*
X1369762Y301201D01*
X1369795Y301309D01*
X1369825Y301419D01*
X1369850Y301529D01*
X1369872Y301640D01*
X1369889Y301752D01*
X1369903Y301865D01*
X1369913Y301978D01*
X1369919Y302091D01*
X1369921Y302204D01*
X1369919Y302317D01*
X1369913Y302430D01*
X1369903Y302543D01*
X1369889Y302656D01*
X1369872Y302768D01*
X1369850Y302879D01*
X1369825Y302989D01*
X1369795Y303099D01*
X1369762Y303207D01*
X1369725Y303314D01*
X1369685Y303420D01*
X1369640Y303524D01*
X1369592Y303627D01*
X1369541Y303728D01*
X1369486Y303827D01*
X1369428Y303924D01*
X1369366Y304019D01*
X1369301Y304112D01*
X1369233Y304202D01*
X1369162Y304290D01*
X1369087Y304376D01*
X1369010Y304459D01*
X1368930Y304539D01*
X1368847Y304616D01*
X1368761Y304691D01*
X1368673Y304762D01*
X1368583Y304830D01*
X1368490Y304895D01*
X1368395Y304957D01*
X1368298Y305015D01*
X1368199Y305070D01*
X1368098Y305121D01*
X1367995Y305169D01*
X1367891Y305214D01*
X1367785Y305254D01*
X1367678Y305291D01*
X1367570Y305324D01*
X1367460Y305354D01*
X1367350Y305379D01*
X1367239Y305401D01*
X1367127Y305418D01*
X1367014Y305432D01*
X1366901Y305442D01*
X1366788Y305448D01*
X1366675Y305450D01*
X1367324Y310642D02*
X1363430Y310642D01*
X1367324Y310642D02*
X1367425Y310640D01*
X1367525Y310634D01*
X1367625Y310624D01*
X1367725Y310611D01*
X1367824Y310593D01*
X1367923Y310572D01*
X1368020Y310547D01*
X1368117Y310518D01*
X1368212Y310485D01*
X1368306Y310449D01*
X1368398Y310409D01*
X1368489Y310366D01*
X1368578Y310319D01*
X1368665Y310269D01*
X1368751Y310215D01*
X1368834Y310158D01*
X1368914Y310098D01*
X1368993Y310035D01*
X1369069Y309968D01*
X1369142Y309899D01*
X1369212Y309827D01*
X1369280Y309753D01*
X1369345Y309676D01*
X1369406Y309596D01*
X1369465Y309514D01*
X1369520Y309430D01*
X1369572Y309344D01*
X1369621Y309256D01*
X1369666Y309166D01*
X1369708Y309074D01*
X1369746Y308981D01*
X1369780Y308886D01*
X1369811Y308791D01*
X1369838Y308694D01*
X1369861Y308596D01*
X1369881Y308497D01*
X1369896Y308397D01*
X1369908Y308297D01*
X1369916Y308197D01*
X1369920Y308096D01*
X1369920Y307996D01*
X1369916Y307895D01*
X1369908Y307795D01*
X1369896Y307695D01*
X1369881Y307595D01*
X1369861Y307496D01*
X1369838Y307398D01*
X1369811Y307301D01*
X1369780Y307206D01*
X1369746Y307111D01*
X1369708Y307018D01*
X1369666Y306926D01*
X1369621Y306836D01*
X1369572Y306748D01*
X1369520Y306662D01*
X1369465Y306578D01*
X1369406Y306496D01*
X1369345Y306416D01*
X1369280Y306339D01*
X1369212Y306265D01*
X1369142Y306193D01*
X1369069Y306124D01*
X1368993Y306057D01*
X1368914Y305994D01*
X1368834Y305934D01*
X1368751Y305877D01*
X1368665Y305823D01*
X1368578Y305773D01*
X1368489Y305726D01*
X1368398Y305683D01*
X1368306Y305643D01*
X1368212Y305607D01*
X1368117Y305574D01*
X1368020Y305545D01*
X1367923Y305520D01*
X1367824Y305499D01*
X1367725Y305481D01*
X1367625Y305468D01*
X1367525Y305458D01*
X1367425Y305452D01*
X1367324Y305450D01*
X1367324Y305449D02*
X1364728Y305449D01*
M02*
