G04 EAGLE Gerber RS-274X export*
G75*
%MOMM*%
%FSLAX34Y34*%
%LPD*%
%INSoldermask Top*%
%IPPOS*%
%AMOC8*
5,1,8,0,0,1.08239X$1,22.5*%
G01*
%ADD10P,1.798066X8X22.500000*%
%ADD11C,2.503200*%
%ADD12C,1.524000*%
%ADD13C,2.003200*%
%ADD14C,0.352238*%
%ADD15R,3.403200X3.403200*%


D10*
X1282500Y783700D03*
X1257500Y783700D03*
X1257500Y763700D03*
X1282500Y763700D03*
D11*
X1209800Y736600D03*
X1330200Y736600D03*
D12*
X1181100Y476504D02*
X1181100Y463296D01*
X1206500Y463296D02*
X1206500Y476504D01*
X1231900Y476504D02*
X1231900Y463296D01*
X1257300Y463296D02*
X1257300Y476504D01*
X1282700Y476504D02*
X1282700Y463296D01*
X1308100Y463296D02*
X1308100Y476504D01*
X1308100Y539496D02*
X1308100Y552704D01*
X1282700Y552704D02*
X1282700Y539496D01*
X1257300Y539496D02*
X1257300Y552704D01*
X1231900Y552704D02*
X1231900Y539496D01*
X1206500Y539496D02*
X1206500Y552704D01*
X1181100Y552704D02*
X1181100Y539496D01*
X774700Y540004D02*
X774700Y526796D01*
X800100Y526796D02*
X800100Y540004D01*
X825500Y540004D02*
X825500Y526796D01*
X850900Y526796D02*
X850900Y540004D01*
X876300Y540004D02*
X876300Y526796D01*
X901700Y526796D02*
X901700Y540004D01*
X901700Y602996D02*
X901700Y616204D01*
X876300Y616204D02*
X876300Y602996D01*
X850900Y602996D02*
X850900Y616204D01*
X825500Y616204D02*
X825500Y602996D01*
X800100Y602996D02*
X800100Y616204D01*
X774700Y616204D02*
X774700Y602996D01*
X774700Y400304D02*
X774700Y387096D01*
X800100Y387096D02*
X800100Y400304D01*
X825500Y400304D02*
X825500Y387096D01*
X850900Y387096D02*
X850900Y400304D01*
X876300Y400304D02*
X876300Y387096D01*
X901700Y387096D02*
X901700Y400304D01*
X901700Y463296D02*
X901700Y476504D01*
X876300Y476504D02*
X876300Y463296D01*
X850900Y463296D02*
X850900Y476504D01*
X825500Y476504D02*
X825500Y463296D01*
X800100Y463296D02*
X800100Y476504D01*
X774700Y476504D02*
X774700Y463296D01*
X812800Y197104D02*
X812800Y183896D01*
X838200Y183896D02*
X838200Y197104D01*
X965200Y197104D02*
X965200Y183896D01*
X965200Y260096D02*
X965200Y273304D01*
X863600Y197104D02*
X863600Y183896D01*
X889000Y183896D02*
X889000Y197104D01*
X939800Y197104D02*
X939800Y183896D01*
X914400Y183896D02*
X914400Y197104D01*
X939800Y260096D02*
X939800Y273304D01*
X914400Y273304D02*
X914400Y260096D01*
X889000Y260096D02*
X889000Y273304D01*
X863600Y273304D02*
X863600Y260096D01*
X838200Y260096D02*
X838200Y273304D01*
X812800Y273304D02*
X812800Y260096D01*
X825500Y44704D02*
X825500Y31496D01*
X850900Y31496D02*
X850900Y44704D01*
X977900Y44704D02*
X977900Y31496D01*
X977900Y107696D02*
X977900Y120904D01*
X876300Y44704D02*
X876300Y31496D01*
X901700Y31496D02*
X901700Y44704D01*
X952500Y44704D02*
X952500Y31496D01*
X927100Y31496D02*
X927100Y44704D01*
X952500Y107696D02*
X952500Y120904D01*
X927100Y120904D02*
X927100Y107696D01*
X901700Y107696D02*
X901700Y120904D01*
X876300Y120904D02*
X876300Y107696D01*
X850900Y107696D02*
X850900Y120904D01*
X825500Y120904D02*
X825500Y107696D01*
D13*
X559600Y652900D02*
X559600Y670900D01*
X609600Y670900D02*
X609600Y652900D01*
X659600Y652900D02*
X659600Y670900D01*
X509600Y670900D02*
X509600Y652900D01*
X709600Y652900D02*
X709600Y670900D01*
X709600Y752900D02*
X709600Y770900D01*
X509600Y770900D02*
X509600Y752900D01*
X280200Y696300D02*
X280200Y678300D01*
X330200Y678300D02*
X330200Y696300D01*
X380200Y696300D02*
X380200Y678300D01*
X230200Y678300D02*
X230200Y696300D01*
X430200Y696300D02*
X430200Y678300D01*
X430200Y778300D02*
X430200Y796300D01*
X230200Y796300D02*
X230200Y778300D01*
D14*
X1345345Y283445D02*
X1350855Y283445D01*
X1345345Y283445D02*
X1345345Y284955D01*
X1350855Y284955D01*
X1350855Y283445D01*
X1350855Y278445D02*
X1345345Y278445D01*
X1345345Y279955D01*
X1350855Y279955D01*
X1350855Y278445D01*
X1350855Y273445D02*
X1345345Y273445D01*
X1345345Y274955D01*
X1350855Y274955D01*
X1350855Y273445D01*
X1350855Y268445D02*
X1345345Y268445D01*
X1345345Y269955D01*
X1350855Y269955D01*
X1350855Y268445D01*
X1350855Y263445D02*
X1345345Y263445D01*
X1345345Y264955D01*
X1350855Y264955D01*
X1350855Y263445D01*
X1350855Y258445D02*
X1345345Y258445D01*
X1345345Y259955D01*
X1350855Y259955D01*
X1350855Y258445D01*
X1350855Y253445D02*
X1345345Y253445D01*
X1345345Y254955D01*
X1350855Y254955D01*
X1350855Y253445D01*
X1350855Y248445D02*
X1345345Y248445D01*
X1345345Y249955D01*
X1350855Y249955D01*
X1350855Y248445D01*
X1353345Y240445D02*
X1354855Y240445D01*
X1353345Y240445D02*
X1353345Y245955D01*
X1354855Y245955D01*
X1354855Y240445D01*
X1354855Y243791D02*
X1353345Y243791D01*
X1358345Y240445D02*
X1359855Y240445D01*
X1358345Y240445D02*
X1358345Y245955D01*
X1359855Y245955D01*
X1359855Y240445D01*
X1359855Y243791D02*
X1358345Y243791D01*
X1363345Y240445D02*
X1364855Y240445D01*
X1363345Y240445D02*
X1363345Y245955D01*
X1364855Y245955D01*
X1364855Y240445D01*
X1364855Y243791D02*
X1363345Y243791D01*
X1368345Y240445D02*
X1369855Y240445D01*
X1368345Y240445D02*
X1368345Y245955D01*
X1369855Y245955D01*
X1369855Y240445D01*
X1369855Y243791D02*
X1368345Y243791D01*
X1373345Y240445D02*
X1374855Y240445D01*
X1373345Y240445D02*
X1373345Y245955D01*
X1374855Y245955D01*
X1374855Y240445D01*
X1374855Y243791D02*
X1373345Y243791D01*
X1378345Y240445D02*
X1379855Y240445D01*
X1378345Y240445D02*
X1378345Y245955D01*
X1379855Y245955D01*
X1379855Y240445D01*
X1379855Y243791D02*
X1378345Y243791D01*
X1383345Y240445D02*
X1384855Y240445D01*
X1383345Y240445D02*
X1383345Y245955D01*
X1384855Y245955D01*
X1384855Y240445D01*
X1384855Y243791D02*
X1383345Y243791D01*
X1388345Y240445D02*
X1389855Y240445D01*
X1388345Y240445D02*
X1388345Y245955D01*
X1389855Y245955D01*
X1389855Y240445D01*
X1389855Y243791D02*
X1388345Y243791D01*
X1392345Y248445D02*
X1397855Y248445D01*
X1392345Y248445D02*
X1392345Y249955D01*
X1397855Y249955D01*
X1397855Y248445D01*
X1397855Y253445D02*
X1392345Y253445D01*
X1392345Y254955D01*
X1397855Y254955D01*
X1397855Y253445D01*
X1397855Y258445D02*
X1392345Y258445D01*
X1392345Y259955D01*
X1397855Y259955D01*
X1397855Y258445D01*
X1397855Y263445D02*
X1392345Y263445D01*
X1392345Y264955D01*
X1397855Y264955D01*
X1397855Y263445D01*
X1397855Y268445D02*
X1392345Y268445D01*
X1392345Y269955D01*
X1397855Y269955D01*
X1397855Y268445D01*
X1397855Y273445D02*
X1392345Y273445D01*
X1392345Y274955D01*
X1397855Y274955D01*
X1397855Y273445D01*
X1397855Y278445D02*
X1392345Y278445D01*
X1392345Y279955D01*
X1397855Y279955D01*
X1397855Y278445D01*
X1397855Y283445D02*
X1392345Y283445D01*
X1392345Y284955D01*
X1397855Y284955D01*
X1397855Y283445D01*
X1389855Y287445D02*
X1388345Y287445D01*
X1388345Y292955D01*
X1389855Y292955D01*
X1389855Y287445D01*
X1389855Y290791D02*
X1388345Y290791D01*
X1384855Y287445D02*
X1383345Y287445D01*
X1383345Y292955D01*
X1384855Y292955D01*
X1384855Y287445D01*
X1384855Y290791D02*
X1383345Y290791D01*
X1379855Y287445D02*
X1378345Y287445D01*
X1378345Y292955D01*
X1379855Y292955D01*
X1379855Y287445D01*
X1379855Y290791D02*
X1378345Y290791D01*
X1374855Y287445D02*
X1373345Y287445D01*
X1373345Y292955D01*
X1374855Y292955D01*
X1374855Y287445D01*
X1374855Y290791D02*
X1373345Y290791D01*
X1369855Y287445D02*
X1368345Y287445D01*
X1368345Y292955D01*
X1369855Y292955D01*
X1369855Y287445D01*
X1369855Y290791D02*
X1368345Y290791D01*
X1364855Y287445D02*
X1363345Y287445D01*
X1363345Y292955D01*
X1364855Y292955D01*
X1364855Y287445D01*
X1364855Y290791D02*
X1363345Y290791D01*
X1359855Y287445D02*
X1358345Y287445D01*
X1358345Y292955D01*
X1359855Y292955D01*
X1359855Y287445D01*
X1359855Y290791D02*
X1358345Y290791D01*
X1354855Y287445D02*
X1353345Y287445D01*
X1353345Y292955D01*
X1354855Y292955D01*
X1354855Y287445D01*
X1354855Y290791D02*
X1353345Y290791D01*
D15*
X1371600Y266700D03*
M02*
